<svg width="65" height="66" viewBox="0 0 65 66" fill="none" xmlns="http://www.w3.org/2000/svg">
<g clip-path="url(#clip0_90_1918)">
<path d="M32.5018 -7.62939e-06C23.8859 -7.62939e-06 15.6229 3.4753 9.53057 9.66137C3.43822 15.8474 0.0155945 24.2376 0.0155945 32.986C0.0155945 41.7344 3.43822 50.1245 9.53057 56.3106C15.6229 62.4967 23.8859 65.972 32.5018 65.972C41.1177 65.972 49.3807 62.4967 55.473 56.3106C61.5654 50.1245 64.988 41.7344 64.988 32.986C64.988 24.2376 61.5654 15.8474 55.473 9.66137C49.3807 3.4753 41.1177 -7.62939e-06 32.5018 -7.62939e-06V-7.62939e-06ZM50.4581 32.9269C49.7195 34.8158 48.5641 36.4308 47.3198 37.993C45.9205 39.7607 44.3985 41.4246 42.7656 42.972C40.608 45.0051 38.428 47.0113 36.2255 48.9904C35.1375 49.9675 33.976 50.8575 32.8359 51.7911C32.7706 51.865 32.6908 51.9241 32.6015 51.9645C32.5123 52.005 32.4157 52.0259 32.318 52.0259C32.2202 52.0259 32.1235 52.005 32.0343 51.9645C31.9451 51.9241 31.8652 51.865 31.8 51.7911C30.2339 50.4997 28.6647 49.2114 27.1293 47.8826C25.8758 46.7965 24.6469 45.6856 23.4516 44.5342C22.097 43.2241 20.7577 41.8922 19.4859 40.4888C18.3642 39.244 17.3038 37.9557 16.2863 36.63C14.8336 34.7349 13.7794 32.6219 13.4514 30.2164C13.1372 28.1545 13.3786 26.0447 14.1502 24.1109C14.6114 22.9385 15.2979 21.8711 16.1698 20.971C17.5565 19.5681 19.368 18.6801 21.3124 18.4504C23.5421 18.1454 25.8 18.7496 27.5921 20.1308C29.48 21.5062 30.8867 23.3049 32.0636 25.3059L32.2535 25.617C32.2719 25.6349 32.2914 25.6515 32.3118 25.6668C32.7715 24.9604 33.1945 24.2571 33.6726 23.5943C35.0854 21.6369 36.7372 19.9441 38.9929 19.0043C41.4784 17.9649 43.9394 18.1672 46.3177 19.3839C48.8062 20.6567 50.2436 22.807 50.9148 25.4739C51.5656 27.9425 51.4053 30.5592 50.4581 32.9269V32.9269Z" fill="white"/>
</g>
<defs>
<clipPath id="clip0_90_1918">
<rect width="65" height="66" fill="white"/>
</clipPath>
</defs>
</svg>
