<svg width="132" height="131" viewBox="0 0 132 131" fill="none" xmlns="http://www.w3.org/2000/svg">
<g clip-path="url(#clip0_192_469)">
<path d="M97.8748 73.9757L131.996 71.0313L98.9977 61.8876L129.75 46.8581L95.6526 50.2127L118.874 25.1254L88.3039 40.527L100.87 8.7687L77.9422 34.1343L78.1509 0L65.9845 31.9048L53.8063 0L54.015 34.1343L31.0871 8.7687L43.6533 40.527L13.0828 25.1254L36.3046 50.2127L2.20674 46.8581L32.9595 61.8876L-0.0390625 71.0313L34.0824 73.9757L6.66295 94.3725L39.5498 84.8304L21.3427 113.744L48.5504 93.0072L42.0543 126.526L59.9086 97.3931L65.9845 130.994L72.0751 97.3989L89.9294 126.532L83.4332 93.0131L110.641 113.75L92.4397 84.8421L125.332 94.3725L97.8748 73.9757ZM65.6905 95.688C59.5286 95.6851 53.5059 93.8612 48.3839 90.4471C43.2618 87.033 39.2705 82.1818 36.9144 76.5069C34.5584 70.8321 33.9434 64.5884 35.1473 58.5653C36.3512 52.5421 39.3199 47.01 43.6781 42.6683C48.0362 38.3267 53.5882 35.3704 59.632 34.1733C65.6757 32.9762 71.9398 33.5921 77.6324 35.943C83.325 38.2939 88.1904 42.2743 91.6135 47.381C95.0366 52.4877 96.8637 58.4913 96.8637 64.6328C96.8637 68.7123 96.0573 72.7518 94.4905 76.5205C92.9237 80.2892 90.6272 83.7134 87.7324 86.5973C84.8375 89.4812 81.4009 91.7684 77.6189 93.3282C73.8369 94.888 69.7836 95.6899 65.6905 95.688Z" fill="white"/>
</g>
<g clip-path="url(#clip1_192_469)">
<path d="M65.5018 31C56.886 31 48.6229 34.4753 42.5306 40.6614C36.4383 46.8475 33.0156 55.2376 33.0156 63.986C33.0156 72.7344 36.4383 81.1245 42.5306 87.3106C48.6229 93.4967 56.886 96.972 65.5018 96.972C74.1177 96.972 82.3807 93.4967 88.4731 87.3106C94.5654 81.1245 97.988 72.7344 97.988 63.986C97.988 55.2376 94.5654 46.8475 88.4731 40.6614C82.3807 34.4753 74.1177 31 65.5018 31V31ZM83.4581 63.9269C82.7195 65.8158 81.5641 67.4309 80.3199 68.993C78.9205 70.7607 77.3985 72.4246 75.7656 73.972C73.6081 76.0051 71.4281 78.0113 69.2255 79.9904C68.1375 80.9676 66.976 81.8576 65.8359 82.7911C65.7707 82.865 65.6908 82.9241 65.6016 82.9646C65.5123 83.005 65.4157 83.0259 65.318 83.0259C65.2203 83.0259 65.1236 83.005 65.0343 82.9646C64.9451 82.9241 64.8652 82.865 64.8 82.7911C63.2339 81.4997 61.6648 80.2114 60.1293 78.8826C58.8759 77.7965 57.6469 76.6856 56.4517 75.5342C55.097 74.2241 53.7578 72.8922 52.4859 71.4888C51.3642 70.244 50.3038 68.9557 49.2863 67.63C47.8337 65.7349 46.7794 63.6219 46.4515 61.2164C46.1372 59.1545 46.3787 57.0447 47.1502 55.1109C47.6114 53.9385 48.298 52.8711 49.1698 51.971C50.5565 50.5681 52.3681 49.6802 54.3125 49.4504C56.5422 49.1454 58.8001 49.7496 60.5921 51.1308C62.48 52.5062 63.8867 54.3049 65.0636 56.3059L65.2536 56.6171C65.2719 56.6349 65.2914 56.6515 65.3119 56.6668C65.7716 55.9604 66.1945 55.2572 66.6726 54.5943C68.0854 52.6369 69.7373 50.9441 71.9929 50.0043C74.4784 48.9649 76.9395 49.1672 79.3177 50.3839C81.8063 51.6567 83.2436 53.807 83.9148 56.4739C84.5656 58.9425 84.4053 61.5593 83.4581 63.9269V63.9269Z" fill="white"/>
</g>
<defs>
<clipPath id="clip0_192_469">
<rect width="132" height="131" fill="white"/>
</clipPath>
<clipPath id="clip1_192_469">
<rect width="65" height="66" fill="white" transform="translate(33 31)"/>
</clipPath>
</defs>
</svg>
