<svg width="132" height="131" viewBox="0 0 132 131" fill="none" xmlns="http://www.w3.org/2000/svg">
<g clip-path="url(#clip0_192_467)">
<path d="M97.8748 73.9757L131.996 71.0313L98.9977 61.8876L129.75 46.8581L95.6526 50.2127L118.874 25.1254L88.3039 40.527L100.87 8.7687L77.9422 34.1343L78.1509 0L65.9845 31.9048L53.8063 0L54.015 34.1343L31.0871 8.7687L43.6533 40.527L13.0828 25.1254L36.3046 50.2127L2.20674 46.8581L32.9595 61.8876L-0.0390625 71.0313L34.0824 73.9757L6.66295 94.3725L39.5498 84.8304L21.3427 113.744L48.5504 93.0072L42.0543 126.526L59.9086 97.3931L65.9845 130.994L72.0751 97.3989L89.9294 126.532L83.4332 93.0131L110.641 113.75L92.4397 84.8421L125.332 94.3725L97.8748 73.9757ZM65.6905 95.688C59.5286 95.6851 53.5059 93.8612 48.3839 90.4471C43.2618 87.033 39.2705 82.1818 36.9144 76.5069C34.5584 70.8321 33.9434 64.5884 35.1473 58.5653C36.3512 52.5421 39.3199 47.01 43.6781 42.6683C48.0362 38.3267 53.5882 35.3704 59.632 34.1733C65.6757 32.9762 71.9398 33.5921 77.6324 35.943C83.325 38.2939 88.1904 42.2743 91.6135 47.381C95.0366 52.4877 96.8637 58.4913 96.8637 64.6328C96.8637 68.7123 96.0573 72.7518 94.4905 76.5205C92.9237 80.2892 90.6272 83.7134 87.7324 86.5973C84.8375 89.4812 81.4009 91.7684 77.6189 93.3282C73.8369 94.888 69.7836 95.6899 65.6905 95.688Z" fill="white"/>
</g>
<path d="M70.8192 50.0181C70.2277 49.4298 69.6455 49.4298 69.0509 50.0181C63.0113 56.0501 56.9759 62.0862 50.9445 68.1265C50.3468 68.7241 50.3219 69.3123 50.9165 69.8944C54.3016 73.2932 57.6929 76.6858 61.0905 80.0721C61.6726 80.6542 62.2797 80.6511 62.8619 80.0721C68.9015 74.0402 74.9359 68.003 80.9652 61.9607C81.1786 61.6896 81.3623 61.3964 81.5131 61.0861C81.3756 60.7701 81.2 60.4723 80.9901 60.199C77.6091 56.7919 74.2189 53.3982 70.8192 50.0181ZM61.9933 77.6226L53.3479 68.9824L69.9382 52.3898L78.5835 61.0394L61.9933 77.6226Z" fill="white" stroke="white" stroke-width="0.75" stroke-miterlimit="10"/>
<path d="M66 32C61.6651 32 57.3726 32.8539 53.3678 34.5129C49.3631 36.1719 45.7245 38.6034 42.66 41.6687C39.5954 44.734 37.165 48.3728 35.5075 52.3774C33.85 56.382 32.998 60.6739 33 65.0078C33 73.7579 36.4768 82.1496 42.6655 88.3368C48.8542 94.524 57.2479 98 66 98C74.7521 98 83.1458 94.524 89.3345 88.3368C95.5232 82.1496 99 73.7579 99 65.0078C99.002 60.6739 98.15 56.382 96.4925 52.3774C94.835 48.3728 92.4045 44.734 89.34 41.6687C86.2755 38.6034 82.6369 36.1719 78.6321 34.5129C74.6274 32.8539 70.3349 32 66 32ZM89.1965 60.0123C88.7109 60.5445 88.1847 61.0394 87.6741 61.5498C78.8949 70.327 70.1136 79.1031 61.3302 87.8782C61.0189 88.1895 60.6421 88.563 60.253 88.6252C60.0162 88.6635 59.7741 88.654 59.541 88.5973C59.3079 88.5407 59.0885 88.438 58.8956 88.2953C57.2114 86.7017 55.6019 85.0303 53.9426 83.362C55.8323 81.23 55.3808 78.5657 53.9114 77.0904C52.442 75.6151 49.8082 75.1451 47.6352 77.0593C47.5325 76.9659 47.4173 76.8725 47.3239 76.7698C45.842 75.2883 44.3539 73.813 42.8813 72.3221C42.0843 71.5191 42.0906 70.7036 42.8813 69.9037C52.1836 60.5974 61.4869 51.2921 70.7912 41.9879C71.6256 41.1569 72.4319 41.1569 73.2631 41.9879C74.8446 43.5442 76.423 45.1222 77.9921 46.6815C76.2923 49.0097 76.3358 51.3347 78.0356 53.031C79.4397 54.4316 82.0828 54.9763 84.2839 53.031C85.9432 54.6837 87.6181 56.3209 89.265 57.9954C89.3932 58.1325 89.4932 58.2935 89.5591 58.4692C89.6251 58.645 89.6558 58.832 89.6494 59.0196C89.6431 59.2072 89.5998 59.3917 89.5221 59.5625C89.4444 59.7334 89.3337 59.8873 89.1965 60.0154V60.0123Z" fill="white" stroke="white" stroke-width="0.75" stroke-miterlimit="10"/>
<defs>
<clipPath id="clip0_192_467">
<rect width="132" height="131" fill="white"/>
</clipPath>
</defs>
</svg>
