<svg width="68" height="68" viewBox="0 0 68 68" fill="none" xmlns="http://www.w3.org/2000/svg">
<path d="M38.8192 19.0181C38.2277 18.4299 37.6455 18.4299 37.0509 19.0181C31.0113 25.0501 24.9758 31.0862 18.9445 37.1265C18.3468 37.7241 18.3218 38.3123 18.9165 38.8944C22.3015 42.2932 25.6929 45.6858 29.0904 49.0722C29.6726 49.6542 30.2797 49.6511 30.8618 49.0722C36.9014 43.0402 42.9359 37.003 48.9651 30.9607C49.1786 30.6896 49.3623 30.3964 49.5131 30.0861C49.3756 29.7702 49.1999 29.4723 48.9901 29.199C45.6091 25.7919 42.2188 22.3983 38.8192 19.0181ZM29.9933 46.6226L21.3479 37.9824L37.9382 21.3898L46.5835 30.0394L29.9933 46.6226Z" fill="white" stroke="#1D1D1B" stroke-width="0.75" stroke-miterlimit="10"/>
<path d="M34 1C29.6651 1 25.3726 1.85388 21.3678 3.51287C17.3631 5.17186 13.7245 7.60344 10.66 10.6687C7.59542 13.734 5.16501 17.3728 3.50752 21.3774C1.85003 25.382 0.997959 29.6739 1 34.0078C1 42.7579 4.47676 51.1496 10.6655 57.3368C16.8542 63.524 25.2479 67 34 67C42.7521 67 51.1458 63.524 57.3345 57.3368C63.5232 51.1496 67 42.7579 67 34.0078C67.002 29.6739 66.15 25.382 64.4925 21.3774C62.835 17.3728 60.4045 13.734 57.34 10.6687C54.2755 7.60344 50.6369 5.17186 46.6321 3.51287C42.6274 1.85388 38.3349 1 34 1ZM57.1965 29.0123C56.7109 29.5445 56.1847 30.0394 55.6741 30.5498C46.8949 39.327 38.1136 48.1031 29.3302 56.8782C29.0189 57.1895 28.6421 57.563 28.253 57.6252C28.0162 57.6635 27.7741 57.654 27.541 57.5973C27.3079 57.5407 27.0885 57.438 26.8956 57.2953C25.2114 55.7017 23.6019 54.0303 21.9426 52.362C23.8323 50.23 23.3808 47.5657 21.9114 46.0904C20.442 44.6151 17.8082 44.1451 15.6352 46.0593C15.5325 45.9659 15.4173 45.8725 15.3239 45.7698C13.842 44.2883 12.3539 42.813 10.8813 41.3221C10.0843 40.5191 10.0906 39.7036 10.8813 38.9037C20.1836 29.5974 29.4869 20.2921 38.7912 10.9879C39.6256 10.1569 40.4319 10.1569 41.2631 10.9879C42.8446 12.5442 44.423 14.1222 45.9921 15.6815C44.2923 18.0097 44.3358 20.3347 46.0356 22.031C47.4397 23.4316 50.0828 23.9763 52.2839 22.031C53.9432 23.6837 55.6181 25.3209 57.265 26.9954C57.3932 27.1325 57.4932 27.2935 57.5591 27.4692C57.6251 27.645 57.6558 27.832 57.6494 28.0196C57.6431 28.2072 57.5998 28.3917 57.5221 28.5625C57.4444 28.7334 57.3337 28.8873 57.1965 29.0154V29.0123Z" fill="white" stroke="#1D1D1B" stroke-width="0.75" stroke-miterlimit="10"/>
</svg>
