<svg width="132" height="131" viewBox="0 0 132 131" fill="none" xmlns="http://www.w3.org/2000/svg">
<g clip-path="url(#clip0_192_468)">
<path d="M97.8748 73.9757L131.996 71.0313L98.9977 61.8876L129.75 46.8581L95.6526 50.2127L118.874 25.1254L88.3039 40.527L100.87 8.7687L77.9422 34.1343L78.1509 0L65.9845 31.9048L53.8063 0L54.015 34.1343L31.0871 8.7687L43.6533 40.527L13.0828 25.1254L36.3046 50.2127L2.20674 46.8581L32.9595 61.8876L-0.0390625 71.0313L34.0824 73.9757L6.66295 94.3725L39.5498 84.8304L21.3427 113.744L48.5504 93.0072L42.0543 126.526L59.9086 97.3931L65.9845 130.994L72.0751 97.3989L89.9294 126.532L83.4332 93.0131L110.641 113.75L92.4397 84.8421L125.332 94.3725L97.8748 73.9757ZM65.6905 95.688C59.5286 95.6851 53.5059 93.8612 48.3839 90.4471C43.2618 87.033 39.2705 82.1818 36.9144 76.5069C34.5584 70.8321 33.9434 64.5884 35.1473 58.5653C36.3512 52.5421 39.3199 47.01 43.6781 42.6683C48.0362 38.3267 53.5882 35.3704 59.632 34.1733C65.6757 32.9762 71.9398 33.5921 77.6324 35.943C83.325 38.2939 88.1904 42.2743 91.6135 47.381C95.0366 52.4877 96.8637 58.4913 96.8637 64.6328C96.8637 68.7123 96.0573 72.7518 94.4905 76.5205C92.9237 80.2892 90.6272 83.7134 87.7324 86.5973C84.8375 89.4812 81.4009 91.7684 77.6189 93.3282C73.8369 94.888 69.7836 95.6899 65.6905 95.688Z" fill="white"/>
</g>
<g clip-path="url(#clip1_192_468)">
<path d="M65.9982 32C57.2498 32 48.8597 35.4753 42.6736 41.6614C36.4875 47.8474 33.0122 56.2376 33.0122 64.986C33.0102 69.3191 33.8619 73.6101 35.5187 77.614C37.1754 81.6178 39.6049 85.256 42.6681 88.3207C45.7313 91.3854 49.3684 93.8165 53.3714 95.4752C57.3745 97.1338 61.6651 97.9876 65.9982 97.9876C70.3313 97.9896 74.6224 97.1379 78.6262 95.4811C82.63 93.8243 86.2682 91.3949 89.3329 88.3317C92.3976 85.2685 94.8287 81.6314 96.4874 77.6283C98.146 73.6253 98.9998 69.3347 98.9998 65.0016C99.0018 60.6672 98.1496 56.3749 96.4919 52.37C94.8341 48.3651 92.4033 44.7263 89.3384 41.6614C86.2735 38.5965 82.6346 36.1657 78.6298 34.5079C74.6249 32.8502 70.3326 31.998 65.9982 32V32ZM64.9775 83.4115L60.8823 85.4591H56.7901L54.7425 83.4115V81.3639L67.022 60.9001H64.9775L54.7425 71.132L52.698 69.0844L62.9299 58.8525L69.0696 56.8049L73.1618 58.8525V60.9001L60.8823 81.3639H62.9299L73.1618 71.132L75.2094 73.1796L64.9775 83.4115ZM79.2922 48.6206L77.2446 52.7127H75.2001L71.1048 50.6651V48.6206L73.1524 44.5253H75.2001L79.2922 46.573V48.6206Z" fill="white"/>
</g>
<defs>
<clipPath id="clip0_192_468">
<rect width="132" height="131" fill="white"/>
</clipPath>
<clipPath id="clip1_192_468">
<rect width="66" height="66" fill="white" transform="translate(33 32)"/>
</clipPath>
</defs>
</svg>
