<svg width="66" height="66" viewBox="0 0 66 66" fill="none" xmlns="http://www.w3.org/2000/svg">
<g clip-path="url(#clip0_90_1916)">
<path d="M32.9985 1.13012e-05C24.25 1.13012e-05 15.8599 3.47531 9.67385 9.66138C3.48778 15.8475 0.0124548 24.2376 0.0124548 32.986C0.0104109 37.3191 0.86212 41.6101 2.51891 45.614C4.17569 49.6178 6.60511 53.256 9.66834 56.3207C12.7316 59.3854 16.3686 61.8165 20.3717 63.4752C24.3747 65.1338 28.6654 65.9876 32.9985 65.9876C37.3315 65.9896 41.6226 65.1379 45.6264 63.4811C49.6303 61.8243 53.2685 59.3949 56.3332 56.3317C59.3978 53.2685 61.8289 49.6314 63.4876 45.6284C65.1463 41.6253 66 37.3347 66 33.0016C66.0021 28.6672 65.1499 24.3749 63.4921 20.37C61.8343 16.3651 59.4035 12.7263 56.3386 9.66138C53.2737 6.5965 49.6349 4.16569 45.63 2.50793C41.6252 0.850175 37.3329 -0.00203371 32.9985 1.13012e-05V1.13012e-05ZM31.9777 51.4115L27.8825 53.4591H23.7904L21.7427 51.4115V49.3639L34.0223 28.9001H31.9777L21.7427 39.132L19.6983 37.0844L29.9301 26.8525L36.0699 24.8049L40.162 26.8525V28.9001L27.8825 49.3639H29.9301L40.162 39.132L42.2096 41.1796L31.9777 51.4115ZM46.2924 16.6206L44.2448 20.7127H42.2003L38.1051 18.6651V16.6206L40.1527 12.5254H42.2003L46.2924 14.573V16.6206Z" fill="white"/>
</g>
<defs>
<clipPath id="clip0_90_1916">
<rect width="66" height="66" fill="white"/>
</clipPath>
</defs>
</svg>
