<svg width="687" height="520" viewBox="0 0 687 520" fill="none" xmlns="http://www.w3.org/2000/svg">
<g opacity="0.81" filter="url(#filter0_f_69_272)">
<path d="M75.1984 144.874C74.5906 143.345 70.6951 116.151 69.6729 114.595C57.8944 134.91 65.1512 163.873 65.4827 175.016L36.4463 176.167C36.1608 171.111 35.8661 165.65 35.5254 160.189C35.41 159.407 35.2283 158.637 34.9821 157.887V137.102C35.3873 133.842 35.9029 130.591 36.1976 127.331C38.9604 98.0365 52.5992 71.6247 76.9205 48.0125C81.4441 43.7001 87.0783 40.7314 93.193 39.4388C99.0408 38.0759 104.843 36.6024 111.372 35C104.327 45.3511 96.6372 54.9746 93.285 65.9151C90.189 76.5095 88.9918 87.5682 89.7488 98.5798C95.0993 91.0744 100.284 83.0993 106.325 75.4833C112.366 67.8674 120.913 61.2184 129.302 56.0797C135.666 60.2238 141.946 64.239 148.098 68.3555C151.293 70.5012 154.213 72.8587 157.371 75.0321C158.716 75.953 159.121 76.7726 158.698 78.1816C150.161 106.435 145.878 135.057 144.727 163.919C144.147 178.488 144.221 193.075 144 207.653C144 208.509 144 209.375 144 210.738C138.612 208.141 133.787 205.839 129.017 203.5C124.246 201.16 119.807 198.84 115.138 196.639C113.214 195.718 112.532 194.723 112.56 193.084C112.891 173.607 113.131 154.12 113.379 134.634C113.379 134.394 112.79 122.874 112.79 122.874C111.657 126.198 92.9996 148.005 91.9774 151.357" fill="white"/>
<path d="M652.141 344.086C651.954 344.609 651.818 345.149 651.736 345.698C651.524 350.238 651.57 350.385 647.131 351.527C641.329 353.019 635.491 354.382 629.634 355.487C627.792 355.837 627.387 356.601 627.276 358.204C626.779 365.35 626.42 372.515 625.628 379.624C623.058 402.877 617.514 425.228 604.309 445.009C601.306 449.494 597.724 453.592 594.39 457.856C592.153 460.72 589.021 461.539 585.669 461.042C582.474 460.609 579.333 459.725 575.539 458.896C594.878 427.834 603.277 394.018 603.609 357.752H575.125C574.296 344.003 573.486 330.512 572.675 317.03L649.82 297.488C650.069 299.864 650.41 302.553 650.621 305.251C651.045 310.565 651.395 315.888 651.8 321.211C651.888 321.68 652.024 322.14 652.205 322.583L652.141 344.086Z" fill="white"/>
<path d="M468.041 146.292C468.041 152.472 468.041 158.025 468.041 163.578C468.124 173.238 468.511 182.917 468.317 192.568C467.654 226.301 466.807 260.025 465.987 293.749C465.914 296.991 466.66 300.941 465.067 303.253C463.593 305.426 459.541 305.868 456.668 307.084C452.68 308.751 448.702 310.445 444.466 312.232C432.779 289.559 422.493 266.315 411.792 243.025C411.69 243.946 411.515 244.812 411.479 245.705C410.466 272.589 409.477 299.471 408.513 326.349C408.584 326.952 408.428 327.559 408.076 328.053C407.724 328.547 407.2 328.891 406.607 329.02C399.148 331.58 391.725 334.26 384.146 336.94C384.146 333.063 384.045 329.572 384.146 326.174C384.708 310.196 385.444 294.219 385.914 278.232C386.724 250.678 387.397 223.115 388.097 195.552C388.253 189.308 388.318 183.055 388.327 176.802C388.327 175.255 388.658 174.491 390.307 174.039C396.753 172.198 403.2 170.07 409.793 167.998C422.143 190.303 433.028 213.464 443.388 236.883L444.143 236.827V226.283C444.143 204.531 444.143 182.779 444.143 161.027C444.143 154.267 443.959 154.194 450.277 152.03C455.876 150.114 461.521 148.392 468.041 146.292Z" fill="white"/>
<path d="M323.789 195.119L339.086 189.695C352.291 241.634 360.267 294.384 370.139 347.061C362.145 348.295 354.483 349.28 346.702 348.313C345.025 348.101 344.316 347.549 343.985 345.845C341.94 335.466 339.721 325.134 337.695 314.755C337.345 312.987 336.673 312.536 334.932 312.425C324.13 311.734 313.318 310.979 302.535 310.068C300.315 309.874 299.403 310.445 298.593 312.545C295.747 319.912 292.616 327.178 289.642 334.499C289.181 335.641 288.721 336.341 287.293 335.945C278.416 333.413 269.52 330.926 260.449 328.375C262.88 323.062 265.284 317.96 267.577 312.803C280.221 284.392 289.817 254.877 299.053 225.233C301.033 218.869 303.069 212.534 304.957 206.152C305.112 205.433 305.437 204.762 305.905 204.195C306.373 203.628 306.97 203.181 307.646 202.892C310.537 201.593 313.3 200.055 316.164 198.701L323.789 195.119ZM329.259 270.579L322.702 238.734L322.205 238.798L312.508 271.785L329.259 270.579Z" fill="white"/>
<path d="M322.979 116.565C323.559 99.3903 324.111 83.0072 324.682 66.1177L348.543 59.8739C348.543 63.5576 348.543 66.8636 348.543 70.1421C348.341 84.8767 348.157 99.6113 347.88 114.346C347.659 125.922 347.3 137.498 347.07 149.074C347.11 149.678 346.939 150.277 346.586 150.769C346.233 151.261 345.721 151.615 345.136 151.772C339.482 154.185 333.855 156.68 328.292 159.305C327.778 159.613 327.18 159.755 326.582 159.71C325.983 159.666 325.413 159.437 324.95 159.056C311.928 150.31 299.941 140.115 289.218 128.666C288.866 128.208 288.558 127.718 288.297 127.202L287.606 127.506C287.063 131.742 286.492 135.969 285.976 140.205C284.086 155.75 282.192 171.295 280.294 186.84C280.244 187.733 279.859 188.575 279.217 189.198C270.505 194.723 261.72 200.083 252.336 205.885C252.787 202.265 253.118 199.355 253.514 196.455C256.599 174.104 259.74 151.753 262.723 129.394C264.387 117.115 265.947 104.802 267.402 92.4558C267.411 91.5619 267.71 90.6951 268.253 89.9848C268.795 89.2744 269.553 88.7586 270.413 88.5143C275.377 86.608 280.258 84.4715 285.148 82.2705C286.769 81.5338 287.745 81.7456 289.016 83.0164C299.247 93.2938 309.561 103.479 319.857 113.683C320.64 114.53 321.524 115.258 322.979 116.565Z" fill="white"/>
<path d="M273.977 355.515L291.64 364.779C291.989 365.01 292.359 365.207 292.745 365.368C298.915 367.302 302.562 371.76 305.785 377.193C316.274 394.884 327.141 412.363 337.861 429.915C338.294 430.624 338.782 431.324 339.178 432.024L339.878 431.969C339.426 415.015 338.957 398.061 338.542 381.217L362.642 378.924C363.398 413.081 364.134 447.459 363.223 481.855C357.175 483.959 350.821 485.049 344.418 485.078C343.888 484.987 343.384 484.783 342.939 484.481C342.495 484.18 342.12 483.787 341.839 483.328C333.514 469.576 325.244 455.793 317.03 441.979C314.589 437.863 312.296 433.691 309.662 428.939C310.464 443.149 311.219 456.686 311.983 470.224L311.228 470.445C306.743 466.264 302.231 462.156 297.792 457.902C295.195 455.434 292.846 452.68 290.13 450.36C287.855 448.416 287.164 446.096 286.75 443.259C282.643 414.821 278.397 386.402 274.198 357.983C274.06 357.264 274.06 356.537 273.977 355.515Z" fill="white"/>
<path d="M168.68 172.235L189.317 182.936C192.639 164.094 195.847 145.89 198.941 128.325C191.73 123.573 184.777 119.052 177.907 114.42C177.552 114.145 177.265 113.791 177.068 113.387C176.872 112.983 176.771 112.539 176.775 112.09C178.616 102.954 180.514 93.8372 182.42 84.7109C182.523 84.3362 182.646 83.9673 182.788 83.6058C186.306 85.7331 189.621 87.971 193.148 89.8036C198.591 92.64 204.024 95.6053 209.725 97.7787C218.805 101.232 228.06 100.32 237.186 97.5024C240.594 96.4526 243.974 95.3291 247.786 94.1042C247.353 97.6866 247.022 100.965 246.561 104.234C245.641 110.911 244.655 117.588 243.55 124.237C243.428 124.707 243.198 125.142 242.878 125.508C242.558 125.874 242.158 126.161 241.708 126.345C236.422 127.813 231.102 129.145 225.749 130.342C224.239 130.683 223.529 131.18 223.235 132.764C220.242 148.88 217.157 164.996 214.118 181.094C214.032 181.849 213.995 182.609 214.007 183.368L234.626 176.001C234.028 179.897 233.457 183.534 232.904 187.172C231.744 194.907 230.528 202.643 229.488 210.397C229.193 212.561 228.392 213.593 226.163 214.173C216.319 216.742 206.483 219.229 196.197 219.072C185.91 218.916 176.148 216.153 166.552 212.755C165.991 212.552 165.475 211.226 165.53 210.471C166.203 200.921 166.967 191.371 167.741 181.821C168.026 178.727 168.357 175.596 168.68 172.235Z" fill="white"/>
<path d="M485.456 144.128C503.312 140.122 519.336 144.69 534.485 153.135C543.482 158.163 552.12 163.854 560.887 169.297C561.18 169.489 561.43 169.74 561.621 170.033C561.813 170.326 561.942 170.655 562.002 171C562.619 181.388 563.153 191.776 563.742 202.661L537.441 189.566C537.441 191.555 537.441 193.001 537.441 194.447C537.834 224.941 537.177 255.414 535.47 285.866C535.429 286.348 535.277 286.814 535.027 287.228C534.776 287.642 534.433 287.992 534.024 288.251C526.924 290.59 519.76 292.754 512.613 294.955C512.305 294.974 511.995 294.953 511.692 294.891C511.904 290.572 512.144 286.28 512.3 281.998C512.816 268.019 513.525 254.039 513.737 240.05C514.022 222.056 513.912 204.052 513.958 186.057C513.958 181.913 513.958 181.913 509.989 181.204C502.796 179.915 495.714 181.204 488.614 182.061L487.03 182.263C486.478 169.509 485.971 156.837 485.456 144.128Z" fill="white"/>
<path d="M409.756 363.213C409.756 366.584 409.756 369.715 409.756 372.855C409.701 385.196 409.646 397.533 409.591 409.867C409.591 415.512 409.591 421.176 409.701 426.821C409.884 428.307 410.221 429.769 410.705 431.186C411.213 431.1 411.713 430.968 412.197 430.79C424.611 424.528 435.505 416.728 439.981 402.675C442.283 395.427 442.007 387.866 442.265 380.388C442.633 369.337 442.872 358.24 443.186 347.171C443.188 346.794 443.271 346.422 443.43 346.081C443.589 345.739 443.82 345.436 444.107 345.191C451.649 341.913 459.246 338.745 466.825 335.558C466.881 335.558 466.973 335.632 467.212 335.752C467.212 337.373 467.258 339.085 467.212 340.798C466.727 355.109 466.233 369.423 465.73 383.741C465.159 400.943 458.777 415.972 448.481 429.464C441.92 438.001 434.195 445.577 425.532 451.971C420.255 455.913 414.481 458.758 407.823 459.55C397.177 460.821 388.483 454.319 386.209 442.974C385.419 438.636 385.061 434.231 385.14 429.823C385.14 412.491 385.509 395.16 385.5 377.837C385.5 374.854 386.42 373.583 389.128 372.469C396.062 369.651 402.721 366.409 409.756 363.213Z" fill="white"/>
<path d="M482.416 420.098C483.549 411.11 484.673 402.601 485.667 394.101C485.842 392.6 486.662 392.259 487.85 391.872C493.56 390.178 499.324 389.11 505.789 390.205C506.452 379.099 507.097 368.26 507.778 356.739L488.273 360.046C488.669 350.422 489.047 340.973 489.415 331.921L552.691 318.429C553.189 330.889 553.695 343.414 554.202 356.113H532.367C532.302 356.841 532.21 357.642 532.173 358.443C531.529 371.41 530.921 384.385 530.212 397.342C530.12 397.896 530.221 398.464 530.5 398.95C530.779 399.437 531.217 399.813 531.741 400.013C537.911 403.47 544.05 407.009 550.159 410.631C550.794 411 551.595 412.031 551.485 412.584C549.643 421.609 547.709 430.615 545.656 440.211C541.327 437.347 537.754 434.953 534.153 432.604C527.946 428.58 521.914 424.224 515.44 420.632C511.567 418.474 507.287 417.143 502.872 416.724C498.457 416.306 494.003 416.809 489.793 418.201C487.389 418.938 484.949 419.481 482.416 420.098Z" fill="white"/>
<path d="M368.914 57.019C376.825 56.6507 384.183 50.149 392.038 49.7714C392.204 53.4551 392.627 66.0071 392.747 69.875C393.116 81.193 393.383 92.5202 393.834 103.829C393.944 106.238 394.368 108.621 395.096 110.92C396.339 114.908 398.779 116.759 402.951 116.446C417.916 115.433 425.394 107.236 423.717 91.8572C422.272 78.6145 421.213 65.3257 420.034 52.0553C420.034 51.8988 419.288 46.1615 419.408 45.6918L441.15 41.6582C441.712 46.668 442.845 54.4865 443.379 59.2476C444.502 69.258 445.654 79.2683 446.75 89.2878C449.457 114.033 435.395 135.435 413.403 142.636C396.56 148.162 379.33 139.487 372.883 122.376C370.535 116.123 369.899 109.64 369.826 103.037C369.669 89.3799 369.264 75.7228 368.969 62.0656C368.914 61.246 368.914 57.9123 368.914 57.019Z" fill="white"/>
<path d="M174.187 257.032C183.12 257.787 191.454 260.826 199.816 258.552L219.873 292.791C220.527 291.87 221.043 291.143 221.503 290.406C230.234 276.657 237.159 261.959 243.301 246.948C246.064 240.271 249.941 235.649 256.378 232.315C264.851 227.931 272.863 222.627 281.372 217.58C281.333 217.966 281.262 218.348 281.16 218.722C271.951 241.183 263.166 263.847 253.358 286.041C248.302 297.479 241.386 308.143 235.437 319.194C234.58 320.759 233.595 320.916 232.039 320.511C222.682 318.162 213.298 315.971 203.951 313.585C202.849 313.214 201.919 312.454 201.335 311.449C196.924 303.732 192.881 295.793 188.24 288.214C182.291 278.407 178.285 267.862 174.187 257.032Z" fill="white"/>
<path d="M185.864 341.204C187.384 341.138 188.9 341.397 190.312 341.964C191.724 342.531 192.998 343.393 194.051 344.491C206.318 356.012 218.649 367.45 229.046 380.812C236.413 390.353 242.113 400.869 247.197 411.755C248.818 415.217 250.512 418.643 252.437 422.612C251.369 422.05 250.752 421.774 250.181 421.415C244.259 417.731 238.411 413.836 232.398 410.272C229.202 408.375 225.657 407.058 222.369 405.299C221.12 404.645 220.049 403.697 219.247 402.536C216.678 398.567 214.422 394.377 211.769 390.463C210.866 389.348 209.565 388.628 208.141 388.456C199.006 387.535 190.294 389.92 181.619 392.287C181.256 392.49 180.94 392.768 180.694 393.103C180.448 393.439 180.276 393.823 180.191 394.23C179.095 398.668 178.202 403.163 177.088 407.601C176.968 408.079 176.75 408.527 176.447 408.916C176.144 409.304 175.763 409.625 175.329 409.858C167.418 412.399 159.452 414.794 151.496 417.225C151.162 417.261 150.825 417.261 150.492 417.225C151.486 412.666 152.518 408.237 153.429 403.78C156.953 386.669 160.447 369.549 163.909 352.42C164.517 349.409 164.83 346.333 165.171 343.276C165.318 341.83 165.816 341.222 167.326 341.286C169.49 341.369 171.664 341.185 173.828 341.286" fill="white"/>
<path d="M524.604 45.7194C554.399 55.1953 583.694 66.1775 612.376 78.6236C604.778 83.5781 601.325 90.485 601.794 99.5283L577.473 89.6009L576.654 89.9508C578.68 102.135 580.549 114.355 582.778 126.502C585.006 138.649 587.603 150.805 590.145 163.403C589.224 162.887 588.718 162.629 588.239 162.279C580.798 156.929 573.347 151.597 565.952 146.173C565.03 145.521 564.349 144.582 564.019 143.502C560.685 128.224 557.333 112.946 554.285 97.6036C553.424 92.4211 552.855 87.1944 552.581 81.9481C552.461 80.3917 552.019 79.6274 550.5 79.1854C542.887 76.7726 535.301 74.28 527.744 71.7075C526.915 71.422 525.755 70.4643 525.718 69.7552C525.23 61.9459 524.954 54.1457 524.604 45.7194Z" fill="white"/>
<path d="M524.843 121.547C514.713 118.232 505.089 115.561 494.794 116.096C484.663 116.611 475.114 119.171 465.324 122.542C464.09 113.333 462.893 104.437 461.641 95.2553L478.926 91.0099C477.232 81.9021 475.537 72.8495 473.751 63.3088L457.23 66.5136C455.94 57.9399 454.651 49.4122 453.297 40.4333C457.764 39.5124 462.092 38.4165 466.485 37.7535C479.451 35.8844 492.67 36.8809 505.209 40.6728C507.207 41.2529 508.147 42.0265 508.488 44.2459C509.491 50.987 510.854 57.682 512.061 64.3955C512.19 65.1138 512.226 65.8413 512.346 66.928L496.405 64.0363C497.326 68.4475 498.081 72.4811 498.892 76.5239C499.702 80.5667 500.568 84.3425 501.249 88.2748C501.498 89.7206 502.17 90.0429 503.496 90.2916C508.101 91.1112 512.622 92.1334 517.144 93.1832C517.532 93.3257 517.884 93.5536 518.172 93.8501C518.461 94.1466 518.679 94.504 518.811 94.8961C520.865 103.553 522.771 112.237 524.843 121.547Z" fill="white"/>
<path d="M144.856 238.817C148.429 240.078 150.215 242.123 151.302 245.834C156.1 262.723 163.541 278.508 171.921 293.896C175.605 300.72 178.837 307.83 182.291 314.847C175.218 314.847 168.413 314.847 161.607 314.847C159.839 314.847 158.025 314.423 156.312 314.672C152.453 315.243 150.4 313.705 149.258 310.068C148.337 307.204 146.633 304.607 145.694 301.779C144.893 299.357 143.318 298.759 141.089 298.455C134.385 297.534 127.69 296.549 121.032 295.397C118.693 294.983 117.348 295.333 116.703 297.838C115.589 301.954 114.263 306.006 112.854 310.031C112.559 310.869 111.463 312.084 110.8 312.048C102.402 311.615 94.0121 310.988 85.5673 310.408C91.2954 280.239 106.104 254.177 120.442 227.526L132.976 233.512" fill="white"/>
<path d="M134.357 416.249C118.895 421.047 103.451 424.537 87.2803 422.474C85.5667 422.124 83.8361 421.863 82.0955 421.691C78.2829 421.608 76.9015 419.481 75.9806 416.028C71.5695 399.626 70.0867 382.921 70.3998 366.031C70.538 358.664 71.0998 351.223 71.4866 343.819C71.4866 342.898 71.6707 341.977 71.7812 340.909L92.6399 343.331C92.6399 350.698 92.4834 358.065 92.6399 365.331C92.9162 375.563 93.4872 385.785 93.9016 396.016C93.9844 398.208 95.5592 397.858 96.784 397.628C105.137 396.191 113.489 394.727 121.815 393.143C124.329 392.664 126.76 391.78 129.467 391.025C131.125 399.451 132.718 407.739 134.357 416.249Z" fill="white"/>
<path d="M332.611 236.717L333.1 236.643Z" fill="white"/>
</g>
<path d="M75.198 144.874C74.5902 143.345 70.6947 116.151 69.6725 114.595C57.894 134.91 65.1507 163.873 65.4823 175.016L36.4458 176.167C36.1604 171.111 35.8657 165.65 35.5249 160.189C35.4096 159.407 35.2278 158.637 34.9816 157.887V137.102C35.3868 133.842 35.9025 130.591 36.1972 127.331C38.9599 98.0365 52.5987 71.6247 76.9201 48.0125C81.4436 43.7001 87.0779 40.7314 93.1925 39.4388C99.0403 38.0759 104.842 36.6024 111.371 35C104.326 45.3511 96.6367 54.9746 93.2846 65.9151C90.1885 76.5095 88.9914 87.5682 89.7483 98.5799C95.0988 91.0744 100.284 83.0993 106.325 75.4833C112.366 67.8674 120.912 61.2184 129.302 56.0797C135.665 60.2238 141.946 64.239 148.097 68.3555C151.293 70.5012 154.212 72.8587 157.371 75.0321C158.716 75.953 159.121 76.7726 158.697 78.1816C150.16 106.435 145.878 135.057 144.727 163.919C144.147 178.488 144.22 193.075 143.999 207.653C143.999 208.509 143.999 209.375 143.999 210.738C138.612 208.141 133.786 205.839 129.016 203.5C124.246 201.16 119.807 198.84 115.138 196.639C113.213 195.718 112.532 194.723 112.559 193.084C112.891 173.607 113.13 154.12 113.379 134.634C113.379 134.394 112.79 122.874 112.79 122.874C111.657 126.198 92.9992 148.005 91.977 151.357" fill="white"/>
<path d="M652.141 344.086C651.954 344.609 651.818 345.149 651.736 345.698C651.524 350.238 651.57 350.385 647.131 351.527C641.329 353.019 635.491 354.382 629.634 355.487C627.792 355.837 627.387 356.601 627.276 358.204C626.779 365.35 626.42 372.515 625.628 379.624C623.058 402.877 617.515 425.228 604.309 445.009C601.306 449.494 597.724 453.592 594.39 457.856C592.153 460.72 589.021 461.539 585.669 461.042C582.474 460.609 579.333 459.725 575.539 458.896C594.878 427.834 603.277 394.018 603.609 357.752H575.125C574.296 344.003 573.486 330.512 572.675 317.03L649.82 297.488C650.069 299.864 650.41 302.553 650.621 305.251C651.045 310.565 651.395 315.888 651.8 321.211C651.888 321.681 652.024 322.14 652.205 322.583L652.141 344.086Z" fill="white"/>
<path d="M468.041 146.292C468.041 152.472 468.041 158.025 468.041 163.578C468.124 173.238 468.511 182.917 468.317 192.568C467.654 226.301 466.807 260.025 465.988 293.749C465.914 296.991 466.66 300.941 465.067 303.253C463.593 305.426 459.541 305.868 456.668 307.084C452.68 308.751 448.702 310.445 444.466 312.232C432.779 289.559 422.493 266.315 411.792 243.025C411.691 243.946 411.515 244.812 411.479 245.705C410.466 272.589 409.477 299.471 408.513 326.349C408.584 326.952 408.428 327.559 408.076 328.053C407.724 328.547 407.2 328.891 406.607 329.02C399.148 331.58 391.725 334.26 384.146 336.94C384.146 333.063 384.045 329.573 384.146 326.174C384.708 310.197 385.444 294.219 385.914 278.232C386.724 250.678 387.397 223.115 388.097 195.552C388.253 189.308 388.318 183.055 388.327 176.802C388.327 175.255 388.658 174.491 390.307 174.039C396.753 172.198 403.2 170.07 409.793 167.998C422.143 190.303 433.028 213.464 443.388 236.883L444.143 236.827V226.283C444.143 204.531 444.143 182.779 444.143 161.027C444.143 154.267 443.959 154.194 450.277 152.03C455.876 150.114 461.521 148.392 468.041 146.292Z" fill="white"/>
<path d="M323.789 195.119L339.086 189.695C352.291 241.635 360.267 294.384 370.139 347.061C362.145 348.295 354.483 349.28 346.702 348.313C345.025 348.101 344.316 347.549 343.985 345.845C341.94 335.466 339.721 325.134 337.695 314.755C337.345 312.987 336.673 312.536 334.932 312.425C324.13 311.735 313.318 310.979 302.535 310.068C300.315 309.874 299.403 310.445 298.593 312.545C295.747 319.912 292.616 327.178 289.642 334.499C289.181 335.641 288.721 336.341 287.293 335.945C278.416 333.413 269.52 330.926 260.449 328.375C262.88 323.062 265.284 317.96 267.577 312.803C280.221 284.393 289.817 254.877 299.053 225.233C301.033 218.87 303.069 212.534 304.957 206.152C305.112 205.433 305.437 204.762 305.905 204.195C306.373 203.628 306.97 203.181 307.646 202.892C310.537 201.593 313.3 200.055 316.164 198.702L323.789 195.119ZM329.259 270.579L322.702 238.734L322.205 238.798L312.508 271.785L329.259 270.579Z" fill="white"/>
<path d="M322.979 116.565C323.559 99.3903 324.111 83.0072 324.682 66.1177L348.543 59.8739C348.543 63.5576 348.543 66.8636 348.543 70.1421C348.341 84.8767 348.157 99.6113 347.88 114.346C347.659 125.922 347.3 137.498 347.07 149.074C347.11 149.678 346.939 150.277 346.586 150.769C346.233 151.261 345.721 151.615 345.136 151.772C339.482 154.185 333.855 156.68 328.292 159.305C327.778 159.613 327.18 159.755 326.582 159.71C325.983 159.666 325.413 159.437 324.95 159.056C311.928 150.31 299.941 140.115 289.218 128.666C288.866 128.208 288.558 127.718 288.297 127.202L287.606 127.506C287.063 131.742 286.492 135.969 285.976 140.205C284.086 155.75 282.192 171.295 280.294 186.84C280.244 187.733 279.859 188.575 279.217 189.198C270.505 194.723 261.72 200.083 252.336 205.885C252.787 202.266 253.118 199.355 253.514 196.455C256.599 174.104 259.74 151.753 262.723 129.394C264.387 117.115 265.947 104.802 267.402 92.4558C267.411 91.5619 267.71 90.6951 268.253 89.9848C268.795 89.2744 269.553 88.7586 270.413 88.5143C275.377 86.608 280.258 84.4715 285.148 82.2705C286.769 81.5338 287.745 81.7456 289.016 83.0165C299.247 93.2938 309.561 103.479 319.857 113.683C320.64 114.53 321.524 115.258 322.979 116.565Z" fill="white"/>
<path d="M273.977 355.515L291.64 364.779C291.989 365.01 292.359 365.207 292.745 365.368C298.915 367.302 302.562 371.76 305.785 377.193C316.275 394.884 327.141 412.363 337.861 429.915C338.294 430.624 338.782 431.324 339.178 432.024L339.878 431.969C339.426 415.015 338.957 398.061 338.542 381.217L362.642 378.924C363.398 413.081 364.134 447.459 363.223 481.855C357.175 483.96 350.821 485.049 344.418 485.078C343.888 484.987 343.384 484.783 342.939 484.482C342.495 484.18 342.12 483.787 341.839 483.328C333.514 469.576 325.244 455.793 317.03 441.979C314.589 437.863 312.296 433.691 309.662 428.939C310.464 443.149 311.219 456.686 311.983 470.224L311.228 470.445C306.743 466.264 302.231 462.156 297.792 457.902C295.195 455.434 292.846 452.68 290.13 450.36C287.855 448.416 287.165 446.096 286.75 443.259C282.643 414.821 278.397 386.402 274.198 357.983C274.06 357.264 274.06 356.537 273.977 355.515Z" fill="white"/>
<path d="M168.68 172.235L189.317 182.936C192.639 164.094 195.847 145.89 198.941 128.325C191.73 123.573 184.777 119.052 177.907 114.42C177.552 114.145 177.265 113.791 177.068 113.387C176.872 112.983 176.771 112.539 176.775 112.09C178.616 102.954 180.514 93.8372 182.42 84.7109C182.523 84.3362 182.646 83.9673 182.788 83.6058C186.306 85.7331 189.621 87.971 193.148 89.8036C198.591 92.64 204.024 95.6053 209.725 97.7787C218.805 101.232 228.06 100.32 237.187 97.5024C240.594 96.4526 243.974 95.3291 247.786 94.1042C247.353 97.6866 247.022 100.965 246.561 104.234C245.641 110.911 244.655 117.588 243.55 124.237C243.428 124.707 243.198 125.142 242.878 125.508C242.558 125.874 242.158 126.161 241.708 126.345C236.422 127.813 231.102 129.145 225.749 130.342C224.239 130.683 223.529 131.18 223.235 132.764C220.242 148.88 217.157 164.996 214.118 181.094C214.032 181.849 213.995 182.609 214.007 183.368L234.626 176.001C234.028 179.897 233.457 183.534 232.904 187.172C231.744 194.907 230.528 202.643 229.488 210.397C229.193 212.561 228.392 213.593 226.163 214.173C216.319 216.742 206.483 219.229 196.197 219.072C185.91 218.916 176.148 216.153 166.553 212.755C165.991 212.552 165.475 211.226 165.53 210.471C166.203 200.921 166.967 191.371 167.741 181.821C168.026 178.727 168.357 175.596 168.68 172.235Z" fill="white"/>
<path d="M485.456 144.128C503.312 140.122 519.336 144.69 534.485 153.135C543.482 158.163 552.12 163.854 560.888 169.297C561.18 169.49 561.43 169.74 561.621 170.033C561.813 170.326 561.943 170.655 562.002 171.001C562.619 181.388 563.153 191.776 563.742 202.662L537.441 189.566C537.441 191.555 537.441 193.001 537.441 194.447C537.834 224.941 537.177 255.415 535.47 285.866C535.429 286.348 535.278 286.814 535.027 287.228C534.776 287.642 534.433 287.992 534.025 288.251C526.924 290.59 519.76 292.754 512.613 294.955C512.305 294.975 511.995 294.953 511.692 294.891C511.904 290.572 512.144 286.28 512.3 281.998C512.816 268.019 513.525 254.039 513.737 240.051C514.022 222.056 513.912 204.052 513.958 186.057C513.958 181.913 513.958 181.913 509.989 181.204C502.796 179.915 495.715 181.204 488.614 182.061L487.03 182.263C486.478 169.509 485.971 156.837 485.456 144.128Z" fill="white"/>
<path d="M409.756 363.213C409.756 366.584 409.756 369.715 409.756 372.855C409.701 385.196 409.646 397.533 409.591 409.867C409.591 415.512 409.591 421.176 409.701 426.821C409.884 428.307 410.221 429.77 410.705 431.186C411.213 431.1 411.713 430.968 412.197 430.79C424.611 424.528 435.505 416.728 439.981 402.675C442.283 395.427 442.007 387.866 442.265 380.389C442.633 369.338 442.873 358.241 443.186 347.171C443.188 346.794 443.271 346.423 443.43 346.081C443.589 345.739 443.82 345.436 444.107 345.191C451.649 341.913 459.246 338.745 466.825 335.558C466.881 335.558 466.973 335.632 467.212 335.752C467.212 337.373 467.258 339.086 467.212 340.798C466.727 355.109 466.233 369.424 465.73 383.741C465.159 400.943 458.777 415.973 448.481 429.464C441.92 438.001 434.195 445.577 425.532 451.971C420.255 455.913 414.481 458.758 407.823 459.55C397.177 460.821 388.483 454.319 386.209 442.974C385.419 438.636 385.061 434.231 385.14 429.823C385.14 412.492 385.509 395.16 385.5 377.838C385.5 374.854 386.42 373.583 389.128 372.469C396.062 369.651 402.721 366.409 409.756 363.213Z" fill="white"/>
<path d="M482.417 420.098C483.549 411.11 484.673 402.601 485.667 394.101C485.842 392.6 486.662 392.259 487.85 391.872C493.56 390.178 499.325 389.11 505.789 390.205C506.452 379.099 507.097 368.26 507.779 356.739L488.274 360.046C488.67 350.422 489.047 340.973 489.415 331.921L552.691 318.429C553.189 330.889 553.695 343.414 554.202 356.113H532.367C532.302 356.841 532.21 357.642 532.174 358.443C531.529 371.41 530.921 384.385 530.212 397.343C530.12 397.896 530.221 398.464 530.5 398.95C530.779 399.437 531.217 399.813 531.741 400.013C537.911 403.47 544.05 407.009 550.159 410.631C550.794 411 551.596 412.031 551.485 412.584C549.643 421.609 547.709 430.615 545.656 440.211C541.327 437.347 537.754 434.953 534.153 432.604C527.947 428.58 521.914 424.224 515.44 420.632C511.567 418.474 507.287 417.143 502.872 416.724C498.457 416.306 494.003 416.809 489.793 418.201C487.389 418.938 484.949 419.481 482.417 420.098Z" fill="white"/>
<path d="M368.914 57.019C376.825 56.6507 384.183 50.149 392.038 49.7714C392.204 53.4551 392.627 66.0072 392.747 69.875C393.116 81.193 393.383 92.5202 393.834 103.829C393.944 106.238 394.368 108.621 395.096 110.92C396.339 114.908 398.779 116.759 402.951 116.446C417.916 115.433 425.394 107.236 423.718 91.8572C422.272 78.6145 421.213 65.3257 420.034 52.0553C420.034 51.8988 419.288 46.1615 419.408 45.6918L441.15 41.6582C441.712 46.668 442.845 54.4865 443.379 59.2476C444.503 69.258 445.654 79.2683 446.75 89.2878C449.457 114.033 435.395 135.435 413.403 142.636C396.56 148.162 379.33 139.487 372.883 122.376C370.535 116.123 369.899 109.64 369.826 103.037C369.669 89.3799 369.264 75.7228 368.969 62.0656C368.914 61.246 368.914 57.9123 368.914 57.019Z" fill="white"/>
<path d="M174.187 257.032C183.12 257.787 191.454 260.826 199.816 258.552L219.873 292.791C220.527 291.87 221.043 291.143 221.503 290.406C230.234 276.657 237.159 261.959 243.301 246.948C246.064 240.272 249.941 235.649 256.378 232.315C264.851 227.931 272.863 222.627 281.372 217.58C281.333 217.966 281.262 218.348 281.16 218.722C271.951 241.183 263.166 263.847 253.358 286.041C248.302 297.479 241.386 308.143 235.437 319.194C234.58 320.759 233.595 320.916 232.039 320.511C222.682 318.162 213.298 315.971 203.951 313.586C202.849 313.214 201.919 312.455 201.335 311.449C196.924 303.732 192.881 295.793 188.24 288.214C182.291 278.407 178.285 267.862 174.187 257.032Z" fill="white"/>
<path d="M185.864 341.204C187.384 341.138 188.9 341.398 190.312 341.965C191.724 342.532 192.998 343.393 194.051 344.491C206.318 356.012 218.649 367.45 229.046 380.812C236.413 390.353 242.113 400.87 247.197 411.755C248.818 415.218 250.512 418.643 252.437 422.612C251.369 422.051 250.752 421.774 250.181 421.415C244.259 417.732 238.411 413.836 232.398 410.272C229.202 408.375 225.657 407.058 222.369 405.299C221.12 404.645 220.049 403.697 219.247 402.537C216.678 398.567 214.422 394.377 211.769 390.463C210.866 389.349 209.565 388.629 208.141 388.456C199.006 387.535 190.294 389.92 181.619 392.287C181.256 392.49 180.94 392.768 180.694 393.104C180.448 393.439 180.276 393.823 180.191 394.23C179.095 398.669 178.202 403.163 177.088 407.602C176.968 408.08 176.75 408.527 176.447 408.916C176.144 409.305 175.763 409.625 175.329 409.858C167.418 412.4 159.452 414.794 151.496 417.225C151.162 417.261 150.825 417.261 150.492 417.225C151.486 412.667 152.518 408.237 153.429 403.78C156.953 386.669 160.447 369.549 163.909 352.42C164.517 349.409 164.83 346.333 165.171 343.276C165.318 341.83 165.816 341.222 167.326 341.287C169.49 341.37 171.664 341.185 173.828 341.287" fill="white"/>
<path d="M524.604 45.7194C554.399 55.1953 583.694 66.1775 612.376 78.6236C604.778 83.5781 601.325 90.485 601.795 99.5283L577.473 89.6009L576.654 89.9508C578.68 102.135 580.549 114.355 582.778 126.502C585.006 138.649 587.603 150.805 590.145 163.403C589.224 162.887 588.718 162.629 588.239 162.279C580.798 156.929 573.348 151.597 565.953 146.173C565.03 145.521 564.349 144.582 564.019 143.502C560.685 128.224 557.333 112.946 554.285 97.6036C553.424 92.4211 552.856 87.1944 552.581 81.9481C552.461 80.3918 552.019 79.6274 550.5 79.1854C542.887 76.7726 535.302 74.28 527.744 71.7075C526.915 71.4221 525.755 70.4643 525.718 69.7552C525.23 61.9459 524.954 54.1457 524.604 45.7194Z" fill="white"/>
<path d="M524.843 121.547C514.713 118.232 505.089 115.561 494.794 116.096C484.664 116.611 475.114 119.171 465.324 122.542C464.09 113.333 462.893 104.437 461.641 95.2553L478.926 91.0099C477.232 81.9021 475.537 72.8495 473.751 63.3088L457.23 66.5136C455.94 57.9399 454.651 49.4122 453.297 40.4333C457.764 39.5124 462.092 38.4165 466.485 37.7535C479.451 35.8844 492.67 36.8809 505.209 40.6728C507.208 41.2529 508.147 42.0265 508.488 44.2459C509.491 50.987 510.854 57.682 512.061 64.3955C512.19 65.1138 512.227 65.8413 512.346 66.928L496.405 64.0363C497.326 68.4475 498.081 72.4811 498.892 76.5239C499.702 80.5667 500.568 84.3425 501.249 88.2748C501.498 89.7206 502.17 90.0429 503.496 90.2916C508.101 91.1112 512.622 92.1334 517.144 93.1832C517.532 93.3257 517.884 93.5536 518.172 93.8501C518.461 94.1466 518.679 94.504 518.811 94.8961C520.865 103.553 522.771 112.237 524.843 121.547Z" fill="white"/>
<path d="M144.856 238.817C148.429 240.078 150.215 242.123 151.302 245.834C156.1 262.724 163.541 278.508 171.921 293.896C175.605 300.72 178.837 307.83 182.291 314.847C175.218 314.847 168.413 314.847 161.607 314.847C159.839 314.847 158.025 314.424 156.312 314.672C152.453 315.243 150.4 313.705 149.258 310.068C148.337 307.204 146.633 304.607 145.694 301.779C144.893 299.357 143.318 298.759 141.089 298.455C134.385 297.534 127.69 296.549 121.032 295.398C118.693 294.983 117.348 295.333 116.703 297.838C115.589 301.954 114.263 306.006 112.854 310.031C112.559 310.869 111.463 312.085 110.8 312.048C102.402 311.615 94.0121 310.989 85.5673 310.408C91.2954 280.239 106.104 254.177 120.442 227.526L132.976 233.512" fill="white"/>
<path d="M134.357 416.249C118.895 421.047 103.452 424.537 87.2803 422.474C85.5667 422.124 83.8361 421.863 82.0955 421.691C78.283 421.609 76.9016 419.481 75.9807 416.028C71.5695 399.626 70.0868 382.921 70.3999 366.031C70.538 358.664 71.0998 351.223 71.4866 343.819C71.4866 342.898 71.6707 341.977 71.7812 340.909L92.64 343.331C92.64 350.698 92.4834 358.066 92.64 365.332C92.9162 375.563 93.4872 385.785 93.9016 396.016C93.9845 398.208 95.5592 397.858 96.7841 397.628C105.137 396.191 113.489 394.727 121.815 393.143C124.329 392.664 126.76 391.78 129.467 391.025C131.125 399.451 132.718 407.74 134.357 416.249Z" fill="white"/>
<path d="M332.612 236.717L333.1 236.643Z" fill="white"/>
<defs>
<filter id="filter0_f_69_272" x="0.908291" y="0.926205" width="685.371" height="518.235" filterUnits="userSpaceOnUse" color-interpolation-filters="sRGB">
<feFlood flood-opacity="0" result="BackgroundImageFix"/>
<feBlend mode="normal" in="SourceGraphic" in2="BackgroundImageFix" result="shape"/>
<feGaussianBlur stdDeviation="17.0369" result="effect1_foregroundBlur_69_272"/>
</filter>
</defs>
</svg>
