<svg width="313" height="248" viewBox="0 0 313 248" fill="none" xmlns="http://www.w3.org/2000/svg">
<g opacity="0.7" filter="url(#filter0_f_69_366)">
<path d="M50.1771 78.1553C49.9367 77.5485 48.3963 66.7539 47.9921 66.1361C43.3345 74.2001 46.2041 85.6965 46.3352 90.1196L34.8532 90.5766C34.7403 88.5697 34.6238 86.402 34.489 84.2343C34.4434 83.9241 34.3715 83.6184 34.2742 83.3205V75.0701C34.4344 73.776 34.6383 72.4857 34.7548 71.1916C35.8473 59.5636 41.2406 49.0797 50.858 39.7071C52.6468 37.9953 54.8748 36.817 57.2927 36.3039C59.6051 35.7629 61.8994 35.178 64.4812 34.5419C61.6954 38.6507 58.6547 42.4706 57.3291 46.8133C56.1049 51.0187 55.6314 55.4083 55.9308 59.7793C58.0465 56.8001 60.0968 53.6344 62.4857 50.6114C64.8745 47.5883 68.254 44.949 71.5715 42.9093C74.0878 44.5542 76.5714 46.148 79.004 47.782C80.2676 48.6337 81.422 49.5695 82.6711 50.4322C83.2028 50.7978 83.363 51.1231 83.1954 51.6824C79.8197 62.8974 78.1264 74.2586 77.6712 85.7148C77.4417 91.4977 77.4709 97.288 77.3835 103.075C77.3835 103.415 77.3835 103.758 77.3835 104.299C75.2531 103.268 73.3449 102.354 71.4586 101.426C69.5722 100.497 67.817 99.5763 65.9707 98.7027C65.2096 98.3371 64.9401 97.9423 64.951 97.2916C65.0821 89.5603 65.1768 81.8254 65.2751 74.0904C65.2751 73.9954 65.0421 69.4224 65.0421 69.4224C64.5942 70.742 57.2163 79.3981 56.8121 80.7287" fill="white"/>
<path d="M278.32 157.23C278.246 157.438 278.192 157.652 278.159 157.87C278.076 159.672 278.094 159.731 276.339 160.184C274.044 160.776 271.736 161.317 269.42 161.756C268.691 161.895 268.531 162.198 268.487 162.834C268.291 165.671 268.149 168.515 267.835 171.337C266.819 180.567 264.627 189.439 259.405 197.29C258.218 199.071 256.801 200.697 255.483 202.39C254.598 203.527 253.36 203.852 252.035 203.655C250.771 203.483 249.529 203.132 248.029 202.803C255.676 190.473 258.997 177.05 259.128 162.655H247.865C247.537 157.197 247.217 151.842 246.896 146.49L277.402 138.734C277.5 139.677 277.635 140.744 277.719 141.815C277.886 143.924 278.025 146.037 278.185 148.15C278.22 148.337 278.273 148.519 278.345 148.695L278.32 157.23Z" fill="white"/>
<path d="M205.52 78.7181C205.52 81.171 205.52 83.3752 205.52 85.5794C205.553 89.414 205.706 93.2559 205.63 97.0868C205.367 110.477 205.032 123.863 204.708 137.249C204.679 138.536 204.974 140.104 204.344 141.022C203.761 141.885 202.159 142.06 201.023 142.543C199.446 143.204 197.873 143.877 196.198 144.586C191.577 135.586 187.509 126.36 183.277 117.115C183.237 117.481 183.168 117.824 183.154 118.179C182.753 128.85 182.362 139.521 181.981 150.19C182.009 150.429 181.947 150.67 181.808 150.866C181.669 151.062 181.462 151.199 181.227 151.25C178.277 152.266 175.342 153.33 172.345 154.394C172.345 152.855 172.305 151.469 172.345 150.12C172.567 143.778 172.859 137.436 173.044 131.09C173.365 120.153 173.631 109.212 173.908 98.2712C173.969 95.7928 173.995 93.3107 173.999 90.8287C173.999 90.2146 174.13 89.9112 174.782 89.732C177.331 89.001 179.88 88.1565 182.487 87.3341C187.371 96.1876 191.675 105.381 195.772 114.677L196.07 114.655V110.469C196.07 101.835 196.07 93.2011 196.07 84.5669C196.07 81.8838 195.997 81.8545 198.496 80.9955C200.71 80.2352 202.942 79.5516 205.52 78.7181Z" fill="white"/>
<path d="M148.478 98.0995L154.527 95.9464C159.749 116.563 162.903 137.502 166.806 158.411C163.646 158.901 160.616 159.292 157.539 158.908C156.876 158.824 156.595 158.605 156.464 157.928C155.656 153.809 154.778 149.707 153.977 145.588C153.839 144.886 153.573 144.707 152.885 144.663C148.613 144.389 144.338 144.089 140.073 143.727C139.196 143.65 138.835 143.877 138.515 144.71C137.39 147.635 136.151 150.519 134.975 153.425C134.793 153.878 134.611 154.156 134.047 153.999C130.536 152.994 127.018 152.007 123.431 150.994C124.393 148.885 125.343 146.86 126.25 144.813C131.25 133.536 135.044 121.82 138.697 110.053C139.48 107.527 140.285 105.012 141.031 102.479C141.093 102.193 141.221 101.927 141.406 101.702C141.591 101.477 141.827 101.3 142.094 101.185C143.238 100.669 144.33 100.059 145.463 99.5215L148.478 98.0995ZM150.641 128.052L148.049 115.412L147.852 115.437L144.017 128.531L150.641 128.052Z" fill="white"/>
<path d="M148.158 66.9183C148.387 60.1009 148.606 53.5978 148.831 46.8937L158.267 44.4153C158.267 45.8775 158.267 47.1898 158.267 48.4911C158.187 54.3399 158.114 60.1886 158.005 66.0374C157.917 70.6323 157.775 75.2272 157.684 79.8221C157.7 80.0619 157.632 80.2997 157.493 80.495C157.353 80.6904 157.151 80.8311 156.919 80.8932C154.684 81.8509 152.458 82.8415 150.259 83.8833C150.055 84.0057 149.819 84.0619 149.582 84.0442C149.346 84.0266 149.12 83.9359 148.937 83.7846C143.788 80.3129 139.048 76.2661 134.808 71.7216C134.668 71.5397 134.547 71.3451 134.443 71.1404L134.17 71.261C133.955 72.9425 133.73 74.6204 133.526 76.3019C132.778 82.4723 132.029 88.6427 131.279 94.8132C131.259 95.1677 131.107 95.5018 130.853 95.749C127.408 97.9422 123.934 100.07 120.223 102.373C120.401 100.936 120.533 99.7809 120.689 98.6295C121.909 89.7577 123.151 80.8859 124.331 72.0104C124.989 67.1364 125.605 62.2491 126.181 57.3483C126.185 56.9935 126.303 56.6494 126.517 56.3675C126.732 56.0855 127.031 55.8807 127.371 55.7838C129.334 55.0271 131.264 54.179 133.198 53.3054C133.839 53.0129 134.225 53.097 134.728 53.6015C138.773 57.681 142.852 61.7239 146.923 65.7742C147.233 66.1105 147.582 66.3992 148.158 66.9183Z" fill="white"/>
<path d="M128.781 161.767L135.765 165.444C135.904 165.535 136.05 165.614 136.202 165.678C138.642 166.446 140.084 168.215 141.359 170.372C145.507 177.394 149.804 184.332 154.043 191.299C154.214 191.581 154.407 191.858 154.563 192.136L154.84 192.114C154.662 185.385 154.476 178.655 154.312 171.969L163.842 171.059C164.141 184.617 164.432 198.263 164.072 211.916C161.68 212.751 159.168 213.184 156.635 213.195C156.426 213.159 156.227 213.078 156.051 212.959C155.875 212.839 155.727 212.683 155.616 212.501C152.324 207.042 149.054 201.571 145.805 196.088C144.84 194.454 143.934 192.798 142.892 190.912C143.209 196.552 143.508 201.926 143.81 207.299L143.511 207.387C141.738 205.727 139.953 204.097 138.198 202.408C137.171 201.428 136.242 200.335 135.168 199.414C134.269 198.643 133.996 197.722 133.832 196.596C132.208 185.308 130.529 174.027 128.868 162.746C128.814 162.461 128.814 162.172 128.781 161.767Z" fill="white"/>
<path d="M87.1428 89.0156L95.3036 93.2632C96.617 85.7842 97.8855 78.5585 99.1091 71.5863C96.2577 69.7001 93.5083 67.9053 90.7917 66.0666C90.6511 65.9574 90.5376 65.8172 90.4599 65.6568C90.3822 65.4964 90.3425 65.3201 90.3437 65.1417C91.0721 61.5155 91.8222 57.8966 92.576 54.274C92.6168 54.1253 92.6654 53.9789 92.7217 53.8354C94.1128 54.6798 95.4238 55.5681 96.8185 56.2955C98.9707 57.4214 101.119 58.5985 103.373 59.4611C106.964 60.8319 110.624 60.4701 114.233 59.3515C115.58 58.9348 116.917 58.4888 118.424 58.0026C118.253 59.4246 118.122 60.7259 117.94 62.0236C117.576 64.6738 117.186 67.3241 116.749 69.9633C116.701 70.15 116.61 70.3228 116.483 70.4681C116.357 70.6134 116.198 70.7272 116.021 70.8004C113.93 71.3828 111.827 71.9117 109.71 72.3869C109.113 72.5221 108.832 72.7195 108.716 73.3483C107.532 79.7453 106.312 86.1424 105.11 92.5321C105.076 92.8318 105.062 93.1334 105.067 93.435L113.22 90.5107C112.984 92.0569 112.758 93.5008 112.539 94.9447C112.08 98.0153 111.6 101.086 111.188 104.164C111.072 105.023 110.755 105.432 109.874 105.663C105.981 106.682 102.092 107.669 98.0239 107.607C93.9562 107.545 90.0961 106.448 86.3016 105.1C86.0794 105.019 85.8755 104.493 85.8974 104.193C86.1632 100.402 86.4655 96.6116 86.7714 92.8209C86.8842 91.5927 87.0153 90.3498 87.1428 89.0156Z" fill="white"/>
<path d="M212.407 77.8591C219.468 76.2689 225.804 78.0821 231.795 81.4341C235.352 83.43 238.768 85.6891 242.235 87.8495C242.351 87.9259 242.449 88.0254 242.525 88.1417C242.601 88.2581 242.652 88.3887 242.676 88.5257C242.92 92.6491 243.131 96.7724 243.364 101.093L232.963 95.8951C232.963 96.6847 232.963 97.2586 232.963 97.8325C233.119 109.937 232.859 122.033 232.184 134.12C232.168 134.312 232.108 134.497 232.009 134.661C231.91 134.825 231.774 134.964 231.612 135.067C228.805 135.996 225.972 136.855 223.146 137.728C223.024 137.736 222.901 137.727 222.782 137.703C222.865 135.988 222.96 134.285 223.022 132.585C223.226 127.036 223.506 121.487 223.59 115.934C223.703 108.792 223.659 101.645 223.677 94.5024C223.677 92.8574 223.677 92.8574 222.108 92.576C219.264 92.0642 216.463 92.576 213.656 92.9159L213.029 92.9964C212.811 87.9335 212.611 82.9036 212.407 77.8591Z" fill="white"/>
<path d="M182.473 164.823C182.473 166.16 182.473 167.403 182.473 168.65C182.451 173.548 182.429 178.445 182.407 183.341C182.407 185.582 182.407 187.83 182.451 190.071C182.523 190.661 182.656 191.241 182.848 191.804C183.049 191.769 183.246 191.717 183.438 191.646C188.347 189.161 192.655 186.064 194.424 180.486C195.335 177.609 195.226 174.608 195.328 171.64C195.473 167.253 195.568 162.849 195.692 158.455C195.693 158.305 195.726 158.158 195.788 158.022C195.851 157.886 195.942 157.766 196.056 157.669C199.038 156.367 202.043 155.11 205.04 153.845C205.061 153.845 205.098 153.874 205.193 153.922C205.193 154.565 205.211 155.245 205.193 155.925C205.001 161.606 204.805 167.288 204.606 172.971C204.381 179.799 201.857 185.765 197.786 191.12C195.191 194.509 192.136 197.516 188.711 200.054C186.624 201.618 184.341 202.748 181.708 203.062C177.498 203.567 174.061 200.986 173.161 196.483C172.849 194.761 172.707 193.012 172.739 191.263C172.739 184.383 172.884 177.503 172.881 170.627C172.881 169.443 173.245 168.939 174.315 168.496C177.058 167.378 179.69 166.091 182.473 164.823Z" fill="white"/>
<path d="M211.205 187.402C211.653 183.835 212.097 180.457 212.49 177.083C212.56 176.487 212.884 176.352 213.353 176.198C215.611 175.526 217.891 175.102 220.447 175.537C220.709 171.128 220.964 166.826 221.234 162.253L213.521 163.565C213.677 159.745 213.827 155.995 213.972 152.401L238.994 147.046C239.191 151.992 239.391 156.963 239.591 162.004H230.957C230.931 162.293 230.895 162.611 230.88 162.929C230.626 168.076 230.385 173.227 230.105 178.37C230.068 178.589 230.108 178.815 230.219 179.008C230.329 179.201 230.502 179.35 230.709 179.43C233.149 180.802 235.577 182.207 237.992 183.645C238.244 183.791 238.561 184.2 238.517 184.42C237.789 188.002 237.024 191.577 236.212 195.386C234.5 194.249 233.087 193.299 231.663 192.367C229.209 190.769 226.824 189.04 224.264 187.614C222.732 186.758 221.039 186.229 219.294 186.063C217.548 185.897 215.787 186.097 214.122 186.649C213.171 186.942 212.206 187.158 211.205 187.402Z" fill="white"/>
<path d="M166.322 43.2821C169.45 43.1358 172.36 40.5551 175.466 40.4052C175.532 41.8674 175.699 46.8498 175.747 48.3851C175.892 52.8777 175.998 57.3739 176.176 61.8628C176.22 62.8188 176.388 63.7651 176.675 64.6775C177.167 66.2603 178.132 66.9951 179.781 66.8708C185.699 66.4687 188.656 63.2153 187.993 57.1107C187.422 51.8541 187.003 46.5793 186.537 41.3118C186.537 41.2496 186.242 38.9723 186.289 38.7858L194.887 37.1848C195.109 39.1733 195.557 42.2768 195.768 44.1667C196.212 48.1402 196.668 52.1137 197.101 56.0908C198.172 65.913 192.611 74.4084 183.915 77.2669C177.254 79.4602 170.441 76.0168 167.892 69.2249C166.963 66.7428 166.712 64.1694 166.683 61.5484C166.621 56.1274 166.461 50.7063 166.344 45.2853C166.322 44.9599 166.322 43.6366 166.322 43.2821Z" fill="white"/>
<path d="M89.3204 122.675C92.8528 122.975 96.1484 124.181 99.455 123.278L107.386 136.869C107.645 136.504 107.849 136.215 108.031 135.923C111.483 130.465 114.222 124.631 116.651 118.672C117.743 116.022 119.276 114.187 121.822 112.864C125.172 111.124 128.34 109.018 131.705 107.015C131.689 107.168 131.661 107.32 131.621 107.468C127.98 116.384 124.506 125.38 120.627 134.19C118.628 138.73 115.893 142.963 113.541 147.35C113.202 147.971 112.812 148.033 112.197 147.872C108.497 146.94 104.786 146.07 101.09 145.123C100.654 144.976 100.287 144.674 100.056 144.275C98.3115 141.212 96.7129 138.061 94.8775 135.053C92.525 131.159 90.9409 126.974 89.3204 122.675Z" fill="white"/>
<path d="M93.938 156.086C94.539 156.06 95.1386 156.163 95.6969 156.388C96.2551 156.613 96.7592 156.955 97.1754 157.391C102.026 161.964 106.902 166.504 111.013 171.808C113.927 175.595 116.181 179.77 118.191 184.091C118.832 185.465 119.502 186.825 120.263 188.4C119.841 188.177 119.597 188.068 119.371 187.925C117.029 186.463 114.717 184.917 112.339 183.502C111.075 182.749 109.673 182.226 108.373 181.528C107.879 181.268 107.456 180.892 107.139 180.431C106.123 178.856 105.231 177.193 104.182 175.639C103.825 175.197 103.31 174.911 102.747 174.842C99.1346 174.477 95.6896 175.423 92.2592 176.363C92.1157 176.444 91.991 176.554 91.8937 176.687C91.7963 176.82 91.7284 176.973 91.6947 177.134C91.2614 178.896 90.9081 180.68 90.4675 182.442C90.4203 182.632 90.3341 182.809 90.2143 182.964C90.0945 183.118 89.9438 183.245 89.772 183.338C86.6439 184.346 83.4939 185.297 80.3475 186.262C80.2156 186.276 80.0825 186.276 79.9506 186.262C80.3439 184.452 80.7517 182.694 81.1123 180.925C82.5058 174.133 83.8872 167.338 85.2564 160.538C85.4967 159.343 85.6206 158.122 85.7553 156.909C85.8136 156.335 86.0102 156.093 86.6074 156.119C87.4632 156.152 88.3226 156.079 89.1784 156.119" fill="white"/>
<path d="M227.887 38.7968C239.669 42.5582 251.253 46.9174 262.595 51.8578C259.591 53.8244 258.225 56.566 258.411 60.1557L248.794 56.2151L248.469 56.354C249.271 61.1902 250.01 66.041 250.891 70.8626C251.772 75.6841 252.799 80.5093 253.804 85.51C253.44 85.3053 253.24 85.2029 253.051 85.064C250.108 82.9402 247.162 80.8237 244.238 78.6706C243.873 78.4122 243.604 78.0393 243.473 77.6105C242.155 71.5461 240.829 65.4817 239.624 59.3917C239.284 57.3346 239.059 55.2599 238.95 53.1774C238.903 52.5596 238.728 52.2562 238.127 52.0808C235.117 51.123 232.117 50.1336 229.129 49.1125C228.801 48.9992 228.342 48.619 228.328 48.3376C228.135 45.2377 228.025 42.1416 227.887 38.7968Z" fill="white"/>
<path d="M227.982 68.8959C223.976 67.5799 220.171 66.5198 216.099 66.7318C212.093 66.9365 208.317 67.9527 204.446 69.2906C203.958 65.6352 203.485 62.104 202.989 58.4595L209.825 56.7743C209.155 53.1591 208.485 49.5658 207.778 45.7787L201.245 47.0508C200.735 43.6476 200.226 40.2626 199.69 36.6985C201.456 36.333 203.168 35.898 204.905 35.6348C210.032 34.8929 215.259 35.2884 220.218 36.7936C221.008 37.0239 221.38 37.3309 221.514 38.2119C221.911 40.8877 222.45 43.5452 222.927 46.21C222.978 46.4952 222.993 46.784 223.04 47.2153L216.736 46.0675C217.101 47.8184 217.399 49.4195 217.72 51.0243C218.04 52.629 218.383 54.1278 218.652 55.6887C218.75 56.2626 219.016 56.3905 219.541 56.4892C221.361 56.8145 223.149 57.2203 224.937 57.637C225.091 57.6936 225.23 57.7841 225.344 57.9017C225.458 58.0194 225.544 58.1613 225.597 58.3169C226.409 61.7531 227.162 65.2002 227.982 68.8959Z" fill="white"/>
<path d="M77.7219 115.445C79.1348 115.945 79.8413 116.757 80.271 118.23C82.1683 124.934 85.1107 131.2 88.4245 137.308C89.8812 140.017 91.1594 142.839 92.525 145.624C89.7282 145.624 87.0371 145.624 84.346 145.624C83.6468 145.624 82.9294 145.456 82.252 145.555C80.7262 145.781 79.9141 145.171 79.4626 143.727C79.0984 142.59 78.4247 141.559 78.0533 140.437C77.7364 139.476 77.1137 139.238 76.2325 139.117C73.5814 138.752 70.9339 138.361 68.301 137.904C67.3761 137.739 66.8444 137.878 66.5895 138.872C66.1489 140.506 65.6245 142.115 65.0673 143.712C64.9508 144.045 64.5174 144.528 64.2552 144.513C60.9341 144.341 57.6166 144.093 54.2772 143.862C56.5423 131.887 62.398 121.542 68.068 110.963L73.0242 113.339" fill="white"/>
<path d="M73.5705 185.874C67.4563 187.779 61.3493 189.164 54.9547 188.346C54.277 188.207 53.5927 188.103 52.9044 188.035C51.3968 188.002 50.8506 187.157 50.4864 185.787C48.7421 179.276 48.1558 172.645 48.2796 165.941C48.3342 163.017 48.5564 160.063 48.7093 157.124C48.7093 156.759 48.7821 156.393 48.8258 155.969L57.0741 156.93C57.0741 159.855 57.0121 162.779 57.0741 165.663C57.1833 169.725 57.4091 173.782 57.573 177.843C57.6057 178.713 58.2284 178.574 58.7128 178.483C62.0157 177.913 65.3187 177.332 68.6107 176.703C69.6048 176.513 70.5662 176.162 71.6368 175.862C72.2923 179.207 72.9223 182.497 73.5705 185.874Z" fill="white"/>
<path d="M151.967 114.611L152.16 114.582Z" fill="white"/>
</g>
<path d="M50.1768 78.1552C49.9365 77.5484 48.3961 66.7538 47.9919 66.1361C43.3343 74.2 46.2038 85.6964 46.3349 90.1196L34.8529 90.5765C34.74 88.5696 34.6235 86.402 34.4888 84.2343C34.4432 83.9241 34.3713 83.6183 34.2739 83.3204V75.07C34.4342 73.776 34.6381 72.4856 34.7546 71.1916C35.8471 59.5635 41.2403 49.0797 50.8578 39.707C52.6466 37.9953 54.8745 36.8169 57.2925 36.3038C59.6049 35.7628 61.8991 35.1779 64.481 34.5419C61.6952 38.6506 58.6544 42.4706 57.3289 46.8133C56.1046 51.0186 55.6312 55.4083 55.9305 59.7792C58.0463 56.8 60.0965 53.6344 62.4854 50.6113C64.8743 47.5882 68.2537 44.949 71.5712 42.9092C74.0876 44.5542 76.5711 46.148 79.0037 47.782C80.2674 48.6337 81.4218 49.5695 82.6708 50.4322C83.2025 50.7977 83.3627 51.1231 83.1952 51.6823C79.8194 62.8973 78.1261 74.2585 77.6709 85.7147C77.4415 91.4977 77.4706 97.2879 77.3832 103.075C77.3832 103.414 77.3832 103.758 77.3832 104.299C75.2529 103.268 73.3447 102.354 71.4583 101.426C69.572 100.497 67.8167 99.5762 65.9705 98.7026C65.2094 98.337 64.9399 97.9423 64.9508 97.2916C65.0819 89.5603 65.1766 81.8253 65.2749 74.0903C65.2749 73.9953 65.0418 69.4223 65.0418 69.4223C64.5939 70.7419 57.216 79.3981 56.8118 80.7287" fill="white"/>
<path d="M278.32 157.23C278.246 157.438 278.192 157.652 278.159 157.87C278.076 159.672 278.094 159.731 276.339 160.184C274.044 160.776 271.736 161.317 269.42 161.756C268.691 161.895 268.531 162.198 268.487 162.834C268.291 165.671 268.149 168.515 267.835 171.337C266.819 180.567 264.627 189.439 259.405 197.291C258.218 199.071 256.801 200.697 255.483 202.39C254.598 203.527 253.36 203.852 252.035 203.655C250.771 203.483 249.529 203.132 248.029 202.803C255.676 190.473 258.997 177.05 259.128 162.655H247.865C247.537 157.197 247.217 151.842 246.896 146.491L277.402 138.734C277.5 139.677 277.635 140.744 277.719 141.815C277.886 143.924 278.025 146.037 278.185 148.15C278.22 148.337 278.273 148.519 278.345 148.695L278.32 157.23Z" fill="white"/>
<path d="M205.52 78.7181C205.52 81.171 205.52 83.3752 205.52 85.5794C205.553 89.414 205.706 93.2559 205.63 97.0869C205.367 110.477 205.032 123.863 204.708 137.249C204.679 138.536 204.974 140.104 204.344 141.022C203.762 141.885 202.159 142.06 201.023 142.543C199.446 143.204 197.873 143.877 196.198 144.586C191.577 135.586 187.509 126.36 183.278 117.115C183.237 117.481 183.168 117.824 183.154 118.179C182.753 128.85 182.362 139.521 181.981 150.19C182.009 150.429 181.948 150.67 181.808 150.866C181.669 151.062 181.462 151.199 181.227 151.25C178.278 152.266 175.342 153.33 172.345 154.394C172.345 152.855 172.305 151.469 172.345 150.12C172.568 143.778 172.859 137.436 173.045 131.09C173.365 120.153 173.631 109.212 173.908 98.2712C173.97 95.7928 173.995 93.3108 173.999 90.8287C173.999 90.2146 174.13 89.9112 174.782 89.7321C177.331 89.001 179.88 88.1565 182.487 87.3341C187.371 96.1876 191.675 105.381 195.772 114.677L196.07 114.655V110.47C196.07 101.835 196.07 93.2011 196.07 84.5669C196.07 81.8838 195.998 81.8545 198.496 80.9955C200.71 80.2352 202.942 79.5516 205.52 78.7181Z" fill="white"/>
<path d="M148.478 98.0994L154.527 95.9464C159.749 116.563 162.903 137.502 166.806 158.411C163.645 158.901 160.616 159.292 157.539 158.908C156.876 158.824 156.595 158.605 156.464 157.928C155.656 153.809 154.778 149.707 153.977 145.588C153.839 144.886 153.573 144.707 152.885 144.663C148.613 144.389 144.338 144.089 140.073 143.727C139.196 143.65 138.835 143.877 138.515 144.71C137.39 147.635 136.151 150.519 134.975 153.425C134.793 153.878 134.611 154.156 134.047 153.999C130.536 152.994 127.018 152.007 123.431 150.994C124.393 148.885 125.343 146.86 126.25 144.813C131.25 133.536 135.044 121.82 138.697 110.053C139.48 107.527 140.285 105.012 141.031 102.479C141.093 102.193 141.221 101.927 141.406 101.702C141.591 101.477 141.827 101.299 142.094 101.185C143.238 100.669 144.33 100.059 145.463 99.5214L148.478 98.0994ZM150.641 128.052L148.048 115.412L147.852 115.437L144.017 128.531L150.641 128.052Z" fill="white"/>
<path d="M148.158 66.9183C148.387 60.1009 148.606 53.5978 148.832 46.8937L158.267 44.4153C158.267 45.8775 158.267 47.1898 158.267 48.4911C158.187 54.3399 158.114 60.1886 158.005 66.0374C157.917 70.6323 157.775 75.2272 157.684 79.8221C157.7 80.0619 157.632 80.2997 157.493 80.495C157.353 80.6904 157.151 80.8311 156.92 80.8932C154.684 81.8509 152.459 82.8415 150.259 83.8833C150.055 84.0057 149.819 84.0619 149.583 84.0442C149.346 84.0266 149.12 83.9359 148.937 83.7846C143.788 80.3129 139.048 76.2661 134.808 71.7216C134.669 71.5397 134.547 71.3451 134.444 71.1404L134.17 71.261C133.956 72.9425 133.73 74.6204 133.526 76.3019C132.778 82.4723 132.029 88.6428 131.279 94.8132C131.259 95.1677 131.107 95.5018 130.853 95.749C127.408 97.9423 123.934 100.07 120.223 102.373C120.402 100.936 120.533 99.781 120.689 98.6295C121.909 89.7577 123.151 80.8859 124.331 72.0104C124.989 67.1364 125.605 62.2491 126.181 57.3483C126.185 56.9935 126.303 56.6494 126.517 56.3675C126.732 56.0855 127.032 55.8807 127.372 55.7838C129.334 55.0271 131.264 54.179 133.198 53.3054C133.839 53.0129 134.225 53.097 134.728 53.6015C138.773 57.681 142.852 61.7239 146.923 65.7742C147.233 66.1105 147.582 66.3993 148.158 66.9183Z" fill="white"/>
<path d="M128.781 161.767L135.765 165.444C135.904 165.536 136.05 165.614 136.202 165.678C138.642 166.446 140.084 168.215 141.359 170.372C145.507 177.394 149.804 184.332 154.043 191.299C154.214 191.581 154.407 191.859 154.563 192.136L154.84 192.114C154.662 185.385 154.476 178.655 154.312 171.969L163.842 171.059C164.141 184.617 164.432 198.263 164.072 211.916C161.68 212.751 159.168 213.184 156.636 213.195C156.426 213.159 156.227 213.078 156.051 212.959C155.875 212.839 155.727 212.683 155.616 212.501C152.324 207.042 149.054 201.571 145.805 196.088C144.84 194.454 143.934 192.798 142.892 190.912C143.209 196.552 143.508 201.926 143.81 207.299L143.511 207.387C141.738 205.727 139.953 204.097 138.198 202.408C137.171 201.428 136.243 200.336 135.168 199.414C134.269 198.643 133.996 197.722 133.832 196.596C132.208 185.308 130.529 174.027 128.868 162.746C128.814 162.461 128.814 162.172 128.781 161.767Z" fill="white"/>
<path d="M87.1428 89.0156L95.3036 93.2633C96.617 85.7842 97.8855 78.5586 99.1091 71.5864C96.2577 69.7002 93.5083 67.9053 90.7917 66.0666C90.6511 65.9575 90.5376 65.8172 90.4599 65.6568C90.3822 65.4964 90.3425 65.3202 90.3437 65.1418C91.0721 61.5156 91.8222 57.8967 92.5761 54.2741C92.6168 54.1254 92.6654 53.9789 92.7217 53.8354C94.1128 54.6799 95.4238 55.5681 96.8185 56.2956C98.9707 57.4215 101.119 58.5985 103.373 59.4612C106.964 60.832 110.624 60.4701 114.233 59.3515C115.58 58.9348 116.917 58.4889 118.424 58.0027C118.253 59.4247 118.122 60.726 117.94 62.0237C117.576 64.6739 117.186 67.3241 116.749 69.9634C116.701 70.1501 116.61 70.3229 116.483 70.4682C116.357 70.6135 116.198 70.7272 116.021 70.8005C113.93 71.3829 111.827 71.9117 109.71 72.3869C109.113 72.5222 108.832 72.7196 108.716 73.3483C107.532 79.7454 106.312 86.1425 105.11 92.5322C105.076 92.8319 105.062 93.1335 105.067 93.4351L113.22 90.5107C112.984 92.057 112.758 93.5009 112.539 94.9448C112.081 98.0154 111.6 101.086 111.188 104.164C111.072 105.023 110.755 105.432 109.874 105.663C105.981 106.683 102.092 107.669 98.0239 107.607C93.9562 107.545 90.0961 106.449 86.3016 105.1C86.0794 105.019 85.8755 104.493 85.8974 104.193C86.1632 100.402 86.4655 96.6117 86.7714 92.821C86.8842 91.5927 87.0153 90.3499 87.1428 89.0156Z" fill="white"/>
<path d="M212.407 77.8591C219.468 76.269 225.804 78.0821 231.795 81.4342C235.352 83.4301 238.768 85.6891 242.235 87.8495C242.351 87.926 242.449 88.0255 242.525 88.1418C242.601 88.2581 242.652 88.3888 242.676 88.5258C242.92 92.6491 243.131 96.7725 243.364 101.093L232.963 95.8952C232.963 96.6848 232.963 97.2587 232.963 97.8326C233.119 109.937 232.859 122.033 232.184 134.12C232.168 134.312 232.108 134.497 232.009 134.661C231.91 134.825 231.774 134.964 231.612 135.067C228.805 135.996 225.972 136.855 223.146 137.728C223.024 137.736 222.901 137.727 222.782 137.703C222.865 135.988 222.96 134.285 223.022 132.585C223.226 127.036 223.506 121.487 223.59 115.934C223.703 108.792 223.659 101.645 223.677 94.5025C223.677 92.8575 223.677 92.8575 222.108 92.576C219.264 92.0643 216.463 92.576 213.656 92.916L213.029 92.9964C212.811 87.9336 212.611 82.9037 212.407 77.8591Z" fill="white"/>
<path d="M182.473 164.823C182.473 166.161 182.473 167.403 182.473 168.65C182.451 173.548 182.429 178.445 182.407 183.341C182.407 185.582 182.407 187.83 182.451 190.071C182.523 190.661 182.656 191.241 182.848 191.804C183.049 191.77 183.246 191.717 183.438 191.646C188.347 189.161 192.655 186.065 194.424 180.486C195.335 177.609 195.226 174.608 195.327 171.64C195.473 167.254 195.568 162.849 195.692 158.455C195.693 158.305 195.726 158.158 195.788 158.022C195.851 157.886 195.942 157.766 196.056 157.669C199.038 156.368 202.043 155.11 205.04 153.845C205.061 153.845 205.098 153.875 205.193 153.922C205.193 154.565 205.211 155.245 205.193 155.925C205.001 161.606 204.805 167.288 204.606 172.971C204.38 179.799 201.857 185.765 197.786 191.12C195.191 194.509 192.136 197.516 188.711 200.054C186.624 201.619 184.341 202.748 181.708 203.062C177.498 203.567 174.061 200.986 173.161 196.483C172.849 194.761 172.707 193.012 172.739 191.263C172.739 184.383 172.884 177.503 172.881 170.628C172.881 169.443 173.245 168.939 174.315 168.496C177.058 167.378 179.69 166.091 182.473 164.823Z" fill="white"/>
<path d="M211.205 187.402C211.653 183.835 212.097 180.457 212.49 177.083C212.56 176.487 212.884 176.352 213.353 176.198C215.611 175.526 217.891 175.102 220.447 175.537C220.709 171.128 220.964 166.826 221.234 162.253L213.521 163.565C213.677 159.745 213.827 155.995 213.972 152.401L238.994 147.046C239.191 151.992 239.391 156.963 239.591 162.004H230.957C230.931 162.293 230.895 162.611 230.88 162.929C230.626 168.076 230.385 173.227 230.105 178.37C230.068 178.589 230.109 178.815 230.219 179.008C230.329 179.201 230.502 179.35 230.709 179.43C233.149 180.802 235.577 182.207 237.993 183.645C238.244 183.791 238.561 184.2 238.517 184.42C237.789 188.002 237.024 191.577 236.212 195.386C234.5 194.249 233.087 193.299 231.663 192.367C229.209 190.769 226.824 189.04 224.264 187.615C222.732 186.758 221.039 186.229 219.294 186.063C217.548 185.897 215.787 186.097 214.122 186.649C213.171 186.942 212.206 187.158 211.205 187.402Z" fill="white"/>
<path d="M166.322 43.2821C169.45 43.1359 172.36 40.5551 175.466 40.4052C175.532 41.8674 175.699 46.8498 175.747 48.3851C175.892 52.8777 175.998 57.3739 176.176 61.8628C176.22 62.8188 176.388 63.7651 176.675 64.6775C177.167 66.2603 178.132 66.9951 179.781 66.8708C185.699 66.4687 188.656 63.2153 187.993 57.1107C187.422 51.8541 187.003 46.5793 186.537 41.3118C186.537 41.2496 186.242 38.9723 186.289 38.7858L194.887 37.1848C195.109 39.1733 195.557 42.2768 195.768 44.1667C196.212 48.1402 196.668 52.1137 197.101 56.0908C198.172 65.9131 192.611 74.4084 183.915 77.2669C177.254 79.4602 170.441 76.0168 167.892 69.2249C166.963 66.7428 166.712 64.1694 166.683 61.5484C166.621 56.1274 166.461 50.7063 166.344 45.2853C166.322 44.9599 166.322 43.6366 166.322 43.2821Z" fill="white"/>
<path d="M89.3204 122.675C92.8528 122.975 96.1484 124.181 99.455 123.278L107.386 136.869C107.645 136.504 107.849 136.215 108.031 135.923C111.483 130.465 114.222 124.631 116.651 118.672C117.743 116.022 119.276 114.187 121.822 112.864C125.172 111.124 128.34 109.018 131.705 107.015C131.689 107.168 131.661 107.32 131.621 107.468C127.98 116.384 124.506 125.38 120.627 134.19C118.628 138.73 115.893 142.963 113.541 147.35C113.202 147.971 112.812 148.033 112.197 147.872C108.497 146.94 104.786 146.07 101.09 145.123C100.654 144.976 100.287 144.674 100.056 144.275C98.3115 141.212 96.7129 138.061 94.8775 135.053C92.525 131.159 90.9409 126.974 89.3204 122.675Z" fill="white"/>
<path d="M93.938 156.086C94.539 156.06 95.1387 156.163 95.6969 156.388C96.2552 156.613 96.7592 156.955 97.1754 157.391C102.026 161.964 106.902 166.504 111.013 171.808C113.927 175.595 116.181 179.77 118.191 184.091C118.832 185.465 119.502 186.825 120.263 188.4C119.841 188.177 119.597 188.068 119.371 187.925C117.029 186.463 114.717 184.917 112.339 183.502C111.075 182.749 109.673 182.226 108.373 181.528C107.879 181.268 107.456 180.892 107.139 180.431C106.123 178.856 105.231 177.193 104.182 175.639C103.825 175.197 103.31 174.911 102.747 174.842C99.1346 174.477 95.6896 175.423 92.2592 176.363C92.1157 176.444 91.991 176.554 91.8937 176.687C91.7963 176.82 91.7284 176.973 91.6947 177.134C91.2614 178.896 90.9082 180.68 90.4675 182.442C90.4203 182.632 90.3341 182.809 90.2143 182.964C90.0945 183.118 89.9438 183.245 89.772 183.338C86.6439 184.346 83.4939 185.297 80.3475 186.262C80.2156 186.276 80.0825 186.276 79.9506 186.262C80.3439 184.452 80.7517 182.694 81.1123 180.925C82.5058 174.133 83.8872 167.338 85.2564 160.538C85.4968 159.343 85.6206 158.122 85.7553 156.909C85.8136 156.335 86.0102 156.093 86.6074 156.119C87.4632 156.152 88.3226 156.079 89.1784 156.119" fill="white"/>
<path d="M227.887 38.7968C239.669 42.5581 251.253 46.9174 262.595 51.8577C259.591 53.8244 258.225 56.566 258.411 60.1556L248.794 56.215L248.469 56.354C249.271 61.1901 250.01 66.0409 250.891 70.8625C251.772 75.6841 252.799 80.5093 253.804 85.5099C253.44 85.3052 253.24 85.2029 253.051 85.064C250.108 82.9402 247.162 80.8236 244.238 78.6706C243.873 78.4121 243.604 78.0392 243.473 77.6105C242.155 71.5461 240.829 65.4817 239.624 59.3916C239.284 57.3345 239.059 55.2598 238.95 53.1774C238.903 52.5596 238.728 52.2562 238.127 52.0807C235.117 51.123 232.117 50.1336 229.129 49.1125C228.801 48.9992 228.342 48.619 228.328 48.3375C228.135 45.2377 228.025 42.1415 227.887 38.7968Z" fill="white"/>
<path d="M227.982 68.8959C223.976 67.5799 220.171 66.5198 216.099 66.7318C212.093 66.9365 208.317 67.9527 204.446 69.2906C203.958 65.6352 203.485 62.104 202.989 58.4595L209.825 56.7743C209.155 53.1591 208.485 49.5658 207.778 45.7787L201.245 47.0508C200.735 43.6476 200.226 40.2626 199.69 36.6985C201.456 36.333 203.168 35.898 204.905 35.6348C210.032 34.8929 215.259 35.2884 220.218 36.7936C221.008 37.0239 221.38 37.3309 221.514 38.2119C221.911 40.8877 222.45 43.5452 222.927 46.21C222.978 46.4952 222.993 46.784 223.04 47.2153L216.736 46.0675C217.101 47.8184 217.399 49.4195 217.72 51.0243C218.04 52.629 218.383 54.1278 218.652 55.6887C218.75 56.2626 219.016 56.3905 219.541 56.4892C221.361 56.8145 223.149 57.2203 224.937 57.637C225.091 57.6936 225.23 57.7841 225.344 57.9017C225.458 58.0194 225.544 58.1613 225.597 58.3169C226.409 61.7531 227.162 65.2002 227.982 68.8959Z" fill="white"/>
<path d="M77.7219 115.445C79.1348 115.945 79.8413 116.757 80.271 118.23C82.1683 124.934 85.1107 131.2 88.4245 137.308C89.8812 140.017 91.1594 142.839 92.525 145.624C89.7282 145.624 87.0371 145.624 84.346 145.624C83.6468 145.624 82.9294 145.456 82.252 145.555C80.7262 145.781 79.9141 145.171 79.4626 143.727C79.0984 142.59 78.4247 141.559 78.0533 140.437C77.7364 139.476 77.1137 139.238 76.2325 139.117C73.5814 138.752 70.9339 138.361 68.301 137.904C67.3761 137.739 66.8444 137.878 66.5895 138.872C66.1489 140.506 65.6245 142.115 65.0673 143.712C64.9508 144.045 64.5174 144.527 64.2552 144.513C60.9341 144.341 57.6166 144.092 54.2772 143.862C56.5423 131.887 62.398 121.542 68.068 110.963L73.0242 113.339" fill="white"/>
<path d="M73.5705 185.874C67.4563 187.779 61.3493 189.164 54.9547 188.346C54.277 188.207 53.5927 188.103 52.9044 188.035C51.3968 188.002 50.8506 187.157 50.4864 185.787C48.7421 179.276 48.1558 172.645 48.2796 165.941C48.3342 163.017 48.5564 160.063 48.7093 157.124C48.7093 156.759 48.7821 156.393 48.8258 155.969L57.0741 156.93C57.0741 159.855 57.0121 162.779 57.0741 165.663C57.1833 169.725 57.4091 173.782 57.573 177.843C57.6057 178.713 58.2284 178.574 58.7128 178.483C62.0157 177.913 65.3187 177.332 68.6107 176.703C69.6048 176.513 70.5662 176.162 71.6368 175.862C72.2923 179.207 72.9223 182.497 73.5705 185.874Z" fill="white"/>
<path d="M151.967 114.611L152.16 114.582Z" fill="white"/>
<defs>
<filter id="filter0_f_69_366" x="0.200375" y="0.468075" width="312.219" height="246.805" filterUnits="userSpaceOnUse" color-interpolation-filters="sRGB">
<feFlood flood-opacity="0" result="BackgroundImageFix"/>
<feBlend mode="normal" in="SourceGraphic" in2="BackgroundImageFix" result="shape"/>
<feGaussianBlur stdDeviation="17.0369" result="effect1_foregroundBlur_69_366"/>
</filter>
</defs>
</svg>
