<svg width="790" height="554" viewBox="0 0 790 554" fill="none" xmlns="http://www.w3.org/2000/svg">
<rect x="1" y="1" width="788" height="552" rx="21" stroke="white" stroke-width="2"/>
<rect x="26" y="26" width="643" height="43" rx="21" stroke="white" stroke-width="2"/>
<rect x="26" y="93" width="740" height="43" rx="21" stroke="white" stroke-width="2"/>
<rect x="26" y="161" width="743" height="364" rx="21" stroke="white" stroke-width="2"/>
<path d="M68.4702 57H72.2322L63.5422 41.864L67.9862 43.074L68.2502 42.084L45.1722 35.77L44.9082 36.76L62.5962 41.6H57.5142L48.6702 57H52.4322L54.6542 53.128H66.2482L68.4702 57ZM56.3922 50.092L60.4622 43.03L64.5102 50.092H56.3922ZM81.6796 48.728H88.0156V45.56H81.6796V48.728ZM81.6796 57H88.0156V53.832H81.6796V57Z" fill="white"/>
<path d="M48.2309 113.662V114.784C48.2309 120.218 52.5649 122.286 59.4069 122.286C66.2489 122.286 70.5829 120.218 70.5829 114.784V113.662C70.5829 108.228 66.2489 106.16 59.4069 106.16C52.5649 106.16 48.2309 108.228 48.2309 113.662ZM67.2169 113.662V114.784C67.2169 118.458 63.3449 119.228 59.4069 119.228C55.4689 119.228 51.5969 118.458 51.5969 114.784V113.662C51.5969 109.988 55.4689 109.218 59.4069 109.218C63.3449 109.218 67.2169 109.988 67.2169 113.662ZM89.5049 116.28V115.576C89.5049 111.924 86.9089 109.57 83.2349 109.57C80.3089 109.57 78.0649 110.956 76.8329 112.452V105.236H73.5549V122H76.8329V119.404C78.0649 120.9 80.3089 122.286 83.2349 122.286C86.9089 122.286 89.5049 119.932 89.5049 116.28ZM81.9369 112.606C84.4669 112.606 86.4029 113.508 86.4029 115.576V116.28C86.4029 118.348 84.4669 119.25 81.9369 119.25C80.0889 119.25 78.0209 118.568 76.8329 117.864V113.992C78.0209 113.288 80.0889 112.606 81.9369 112.606ZM97.2015 105.236V107.942H105.165V105.236H97.2015ZM90.6015 112.76H97.2015V120.526C97.2015 122.418 95.5955 123.606 92.8015 123.606V126.532C97.7075 126.532 100.479 124.904 100.479 120.526V109.9H90.6015V112.76ZM111.016 109.57C106.33 109.57 103.228 111.748 103.228 115.796V116.28C103.228 120.328 105.934 122 111.17 122H113.37L116.186 119.14H111.06C108.288 119.14 106.616 118.48 106.374 116.764H118.342V115.686C118.342 111.638 115.526 109.57 111.016 109.57ZM110.95 112.342C113.106 112.342 114.404 113.024 114.734 114.476H106.572C107.122 113.156 108.552 112.342 110.95 112.342ZM132.482 112.76L129.71 109.9H125.53V106.6H122.252V109.9H119.502V112.76H122.252V119.118L126.608 122H132.196L125.53 117.6V112.76H132.482ZM141.999 113.728H148.335V110.56H141.999V113.728ZM141.999 122H148.335V118.832H141.999V122Z" fill="white"/>
<path d="M48.54 201H54.876V197.832H48.54V201ZM57.9502 201H64.2862V197.832H57.9502V201ZM67.3603 201H73.6963V197.832H67.3603V201Z" fill="white"/>
<path d="M105 57.312C107.856 57.312 109.632 55.488 109.944 52.8H108.84C108.576 54.84 107.16 56.28 105 56.28C102.048 56.28 100.8 53.784 100.8 50.808C100.8 47.832 102.024 45.336 105.024 45.336C106.968 45.336 108.24 46.2 108.648 48.168H109.8C109.416 45.672 107.616 44.328 105.024 44.328C101.472 44.328 99.6 47.064 99.6 50.808C99.6 54.552 101.424 57.312 105 57.312ZM116.488 57.312C119.992 57.312 122.056 54.552 122.056 50.808C122.056 47.064 119.992 44.328 116.488 44.328C113.008 44.328 110.92 47.064 110.92 50.808C110.92 54.552 113.008 57.312 116.488 57.312ZM116.488 56.304C113.632 56.304 112.12 53.832 112.12 50.808C112.12 47.784 113.632 45.312 116.488 45.312C119.344 45.312 120.856 47.784 120.856 50.808C120.856 53.832 119.344 56.304 116.488 56.304ZM125.024 44.592H123.848V57H125.024V48.984C125.024 46.92 126.968 45.36 129.176 45.36C130.904 45.36 132.008 46.224 132.008 48.264V57H133.184V48.144C133.184 45.672 131.504 44.352 129.392 44.352C127.28 44.352 125.888 45.36 125.072 46.68H125.024V44.592ZM134.399 45.576H136.319V54.984C136.319 56.448 137.159 57.096 138.431 57.096C138.935 57.096 139.295 57.024 139.679 56.88V55.872H139.607C139.391 55.992 138.983 56.088 138.671 56.088C137.855 56.088 137.495 55.8 137.495 54.888V45.576H139.751V44.592H137.495V40.848H136.319V44.592H134.399V45.576ZM151.024 57.192C151.504 57.192 151.792 57.096 151.984 57V56.136H151.912C151.696 56.208 151.504 56.256 151.336 56.256C150.904 56.256 150.544 56.064 150.544 55.392V48.096C150.544 45.552 149.008 44.328 146.248 44.328C143.152 44.328 141.544 45.72 141.304 48.12H142.504C142.672 46.296 143.92 45.336 146.248 45.336C148.264 45.336 149.368 46.152 149.368 48.024V48.456C149.368 49.608 148.696 49.752 145.768 50.04C143.176 50.304 140.872 50.904 140.872 53.856C140.872 56.136 142.552 57.312 144.832 57.312C147.376 57.312 148.624 56.064 149.32 55.08H149.392V55.512C149.392 56.664 150.064 57.192 151.024 57.192ZM144.952 56.328C143.368 56.328 142.072 55.656 142.072 53.904C142.072 51.552 143.728 51.264 145.912 51.024C147.184 50.88 148.504 50.712 149.368 50.28V52.584C149.368 54.456 147.76 56.328 144.952 56.328ZM157.898 57.312C160.754 57.312 162.53 55.488 162.842 52.8H161.738C161.474 54.84 160.058 56.28 157.898 56.28C154.946 56.28 153.698 53.784 153.698 50.808C153.698 47.832 154.922 45.336 157.922 45.336C159.866 45.336 161.138 46.2 161.546 48.168H162.698C162.314 45.672 160.514 44.328 157.922 44.328C154.37 44.328 152.498 47.064 152.498 50.808C152.498 54.552 154.322 57.312 157.898 57.312ZM163.555 45.576H165.475V54.984C165.475 56.448 166.315 57.096 167.587 57.096C168.091 57.096 168.451 57.024 168.835 56.88V55.872H168.763C168.547 55.992 168.139 56.088 167.827 56.088C167.011 56.088 166.651 55.8 166.651 54.888V45.576H168.907V44.592H166.651V40.848H165.475V44.592H163.555V45.576ZM179.098 55.032C180.658 55.032 182.074 54.096 182.674 52.872H182.698C182.818 53.784 183.562 54.792 185.122 54.792C187.738 54.792 189.322 52.272 189.322 48.792C189.322 43.008 185.05 39.936 180.394 39.936C175.474 39.936 170.578 43.632 170.578 49.992C170.578 55.68 174.082 59.4 179.866 59.4C181.762 59.4 183.418 58.992 184.93 58.32L184.57 57.408C183.106 57.984 181.57 58.392 179.89 58.392C174.538 58.392 171.682 55.008 171.682 49.968C171.682 44.4 175.714 40.944 180.37 40.944C184.834 40.944 188.218 43.608 188.218 48.792C188.218 51.816 187.186 53.856 185.122 53.856C183.898 53.856 183.442 52.8 183.634 51.384L184.45 44.616H183.442L183.178 46.344H183.106C182.578 45.24 181.522 44.424 179.962 44.424C177.298 44.424 175.234 46.776 175.234 50.496C175.234 53.208 176.674 55.032 179.098 55.032ZM179.074 54.048C177.178 54.048 176.41 52.512 176.41 50.496C176.41 47.616 177.706 45.384 179.938 45.384C181.954 45.384 182.77 46.824 182.77 48.864C182.77 51.696 181.666 54.048 179.074 54.048ZM191.513 57H192.689V48.984C192.689 46.92 194.417 45.36 196.361 45.36C197.921 45.36 199.097 46.224 199.097 48.264V57H200.273V48.984C200.273 46.608 201.905 45.36 203.849 45.36C205.553 45.36 206.681 46.224 206.681 48.264V57H207.857V48.144C207.857 45.672 206.177 44.352 204.113 44.352C202.193 44.352 200.825 45.216 200.009 46.632H199.937C199.457 45.12 198.113 44.352 196.577 44.352C194.657 44.352 193.553 45.264 192.737 46.536H192.689V44.592H191.513V57ZM210.241 57H211.417V44.592H210.241V57ZM210.241 41.76H211.417V39.84H210.241V41.76ZM215.071 44.592H213.895V57H215.071V48.984C215.071 46.92 217.015 45.36 219.223 45.36C220.951 45.36 222.055 46.224 222.055 48.264V57H223.231V48.144C223.231 45.672 221.551 44.352 219.439 44.352C217.327 44.352 215.935 45.36 215.119 46.68H215.071V44.592ZM234.64 57V44.592H233.464V52.44C233.464 54.624 231.832 56.28 229.648 56.28C227.8 56.28 226.624 55.368 226.624 53.328V44.592H225.448V53.448C225.448 55.92 227.152 57.288 229.432 57.288C231.52 57.288 232.6 56.304 233.416 55.104H233.464V57H234.64ZM237.1 57H238.276V44.592H237.1V57ZM237.1 41.76H238.276V39.84H237.1V41.76ZM239.891 45.576H241.811V54.984C241.811 56.448 242.651 57.096 243.923 57.096C244.427 57.096 244.787 57.024 245.171 56.88V55.872H245.099C244.883 55.992 244.475 56.088 244.163 56.088C243.347 56.088 242.987 55.8 242.987 54.888V45.576H245.243V44.592H242.987V40.848H241.811V44.592H239.891V45.576ZM256.517 57.192C256.997 57.192 257.285 57.096 257.477 57V56.136H257.405C257.189 56.208 256.997 56.256 256.829 56.256C256.397 56.256 256.037 56.064 256.037 55.392V48.096C256.037 45.552 254.501 44.328 251.741 44.328C248.645 44.328 247.037 45.72 246.797 48.12H247.997C248.165 46.296 249.413 45.336 251.741 45.336C253.757 45.336 254.861 46.152 254.861 48.024V48.456C254.861 49.608 254.189 49.752 251.261 50.04C248.669 50.304 246.365 50.904 246.365 53.856C246.365 56.136 248.045 57.312 250.325 57.312C252.868 57.312 254.117 56.064 254.813 55.08H254.885V55.512C254.885 56.664 255.557 57.192 256.517 57.192ZM250.445 56.328C248.861 56.328 247.565 55.656 247.565 53.904C247.565 51.552 249.221 51.264 251.405 51.024C252.677 50.88 253.997 50.712 254.861 50.28V52.584C254.861 54.456 253.253 56.328 250.445 56.328ZM261.648 57H263.112L267.648 44.592H266.448L263.568 52.464C263.112 53.736 262.392 55.944 262.392 55.944H262.344C262.344 55.944 261.648 53.736 261.216 52.464L258.48 44.592H257.232L261.648 57ZM277.962 57.192C278.442 57.192 278.73 57.096 278.922 57V56.136H278.85C278.634 56.208 278.442 56.256 278.274 56.256C277.842 56.256 277.482 56.064 277.482 55.392V48.096C277.482 45.552 275.946 44.328 273.186 44.328C270.09 44.328 268.482 45.72 268.242 48.12H269.442C269.61 46.296 270.858 45.336 273.186 45.336C275.202 45.336 276.306 46.152 276.306 48.024V48.456C276.306 49.608 275.634 49.752 272.706 50.04C270.114 50.304 267.81 50.904 267.81 53.856C267.81 56.136 269.49 57.312 271.77 57.312C274.314 57.312 275.562 56.064 276.258 55.08H276.33V55.512C276.33 56.664 277.002 57.192 277.962 57.192ZM271.89 56.328C270.306 56.328 269.01 55.656 269.01 53.904C269.01 51.552 270.666 51.264 272.85 51.024C274.122 50.88 275.442 50.712 276.306 50.28V52.584C276.306 54.456 274.698 56.328 271.89 56.328ZM281.446 44.592H280.27V57H281.446V48.984C281.446 46.92 283.39 45.36 285.598 45.36C287.326 45.36 288.43 46.224 288.43 48.264V57H289.606V48.144C289.606 45.672 287.926 44.352 285.814 44.352C283.702 44.352 282.31 45.36 281.494 46.68H281.446V44.592ZM290.82 45.576H292.74V54.984C292.74 56.448 293.58 57.096 294.852 57.096C295.356 57.096 295.716 57.024 296.1 56.88V55.872H296.028C295.812 55.992 295.404 56.088 295.092 56.088C294.276 56.088 293.916 55.8 293.916 54.888V45.576H296.172V44.592H293.916V40.848H292.74V44.592H290.82V45.576ZM298.131 57H299.307V39.84H298.131V57ZM311.29 57.192C311.77 57.192 312.058 57.096 312.25 57V56.136H312.178C311.962 56.208 311.77 56.256 311.602 56.256C311.17 56.256 310.81 56.064 310.81 55.392V48.096C310.81 45.552 309.274 44.328 306.514 44.328C303.418 44.328 301.81 45.72 301.57 48.12H302.77C302.938 46.296 304.186 45.336 306.514 45.336C308.53 45.336 309.634 46.152 309.634 48.024V48.456C309.634 49.608 308.962 49.752 306.034 50.04C303.442 50.304 301.138 50.904 301.138 53.856C301.138 56.136 302.818 57.312 305.098 57.312C307.642 57.312 308.89 56.064 309.586 55.08H309.658V55.512C309.658 56.664 310.33 57.192 311.29 57.192ZM305.218 56.328C303.634 56.328 302.338 55.656 302.338 53.904C302.338 51.552 303.994 51.264 306.178 51.024C307.45 50.88 308.77 50.712 309.634 50.28V52.584C309.634 54.456 308.026 56.328 305.218 56.328ZM314.774 44.592H313.598V57H314.774V48.984C314.774 46.92 316.718 45.36 318.926 45.36C320.654 45.36 321.758 46.224 321.758 48.264V57H322.934V48.144C322.934 45.672 321.254 44.352 319.142 44.352C317.03 44.352 315.638 45.36 314.822 46.68H314.774V44.592ZM334.343 57V44.592H333.167V52.44C333.167 54.624 331.535 56.28 329.351 56.28C327.503 56.28 326.327 55.368 326.327 53.328V44.592H325.151V53.448C325.151 55.92 326.855 57.288 329.135 57.288C331.223 57.288 332.303 56.304 333.119 55.104H333.167V57H334.343ZM336.803 57H337.979V44.592H336.803V57ZM336.803 41.76H337.979V39.84H336.803V41.76ZM339.594 45.576H341.514V54.984C341.514 56.448 342.354 57.096 343.626 57.096C344.13 57.096 344.49 57.024 344.874 56.88V55.872H344.802C344.586 55.992 344.178 56.088 343.866 56.088C343.05 56.088 342.69 55.8 342.69 54.888V45.576H344.946V44.592H342.69V40.848H341.514V44.592H339.594V45.576ZM346.617 57H348.081V55.104H346.617V57ZM348.616 45.576H350.464V57H351.64V45.576H353.944V44.592H351.64V42.264C351.64 41.352 351.976 40.776 353.2 40.776H353.872V39.744H353.128C351.352 39.744 350.464 40.584 350.464 42.24V44.592H348.616V45.576ZM356.751 44.592H355.575V57H356.751V49.824C356.751 48 357.759 46.584 359.079 45.984C359.583 45.768 360.135 45.672 360.831 45.696V44.52C359.919 44.52 359.295 44.64 358.551 45.072C357.807 45.504 357.231 46.176 356.799 47.04H356.751V44.592Z" fill="white"/>
<path d="M159.64 126.984H159.952C161.608 126.984 162.448 126.264 162.448 124.44V110.592H161.272V124.416C161.272 125.52 160.84 125.976 159.88 125.976H159.64V126.984ZM161.272 107.76H162.448V105.84H161.272V107.76ZM174.911 116.928C174.935 114.576 174.479 112.8 173.111 111.528C172.295 110.76 171.191 110.328 169.847 110.328C166.463 110.328 164.327 112.992 164.327 116.808C164.327 120.624 166.295 123.312 169.943 123.312C172.703 123.312 174.335 121.608 174.839 119.304H173.711C173.207 120.984 172.175 122.28 169.943 122.28C166.895 122.28 165.551 119.904 165.527 116.928H174.911ZM173.711 115.968H165.551C165.791 113.352 167.159 111.336 169.847 111.336C172.583 111.336 173.639 113.52 173.711 115.968ZM184.687 123.312C187.591 123.312 189.199 121.68 189.199 119.664C189.199 117.312 187.567 116.64 185.071 116.064C182.527 115.464 181.375 115.056 181.375 113.616C181.375 112.32 182.407 111.36 184.423 111.36C186.295 111.36 187.519 112.272 187.687 113.856H188.839C188.551 111.84 187.279 110.328 184.423 110.328C182.071 110.328 180.199 111.576 180.199 113.64C180.199 115.848 182.095 116.52 184.639 117.12C187.375 117.768 188.023 118.296 188.023 119.64C188.023 121.272 186.775 122.304 184.687 122.304C182.623 122.304 181.159 121.296 180.991 119.256H179.791C179.911 121.392 181.447 123.312 184.687 123.312ZM195.934 123.312C199.438 123.312 201.502 120.552 201.502 116.808C201.502 113.064 199.438 110.328 195.934 110.328C192.454 110.328 190.366 113.064 190.366 116.808C190.366 120.552 192.454 123.312 195.934 123.312ZM195.934 122.304C193.078 122.304 191.566 119.832 191.566 116.808C191.566 113.784 193.078 111.312 195.934 111.312C198.79 111.312 200.302 113.784 200.302 116.808C200.302 119.832 198.79 122.304 195.934 122.304ZM212.39 123V110.592H211.214V118.44C211.214 120.624 209.582 122.28 207.398 122.28C205.55 122.28 204.374 121.368 204.374 119.328V110.592H203.198V119.448C203.198 121.92 204.902 123.288 207.182 123.288C209.27 123.288 210.35 122.304 211.166 121.104H211.214V123H212.39ZM216.074 105.84H214.898V123H216.074V114.984C216.074 112.92 218.018 111.36 220.226 111.36C221.954 111.36 223.058 112.224 223.058 114.264V123H224.234V114.144C224.234 111.672 222.554 110.352 220.442 110.352C218.33 110.352 216.938 111.36 216.122 112.68H216.074V105.84ZM236.048 123.192C236.528 123.192 236.816 123.096 237.008 123V122.136H236.936C236.72 122.208 236.528 122.256 236.36 122.256C235.928 122.256 235.568 122.064 235.568 121.392V114.096C235.568 111.552 234.032 110.328 231.272 110.328C228.176 110.328 226.568 111.72 226.328 114.12H227.528C227.696 112.296 228.944 111.336 231.272 111.336C233.288 111.336 234.392 112.152 234.392 114.024V114.456C234.392 115.608 233.72 115.752 230.792 116.04C228.2 116.304 225.896 116.904 225.896 119.856C225.896 122.136 227.576 123.312 229.856 123.312C232.4 123.312 233.648 122.064 234.344 121.08H234.416V121.512C234.416 122.664 235.088 123.192 236.048 123.192ZM229.976 122.328C228.392 122.328 227.096 121.656 227.096 119.904C227.096 117.552 228.752 117.264 230.936 117.024C232.208 116.88 233.528 116.712 234.392 116.28V118.584C234.392 120.456 232.784 122.328 229.976 122.328ZM238.428 123H239.604V110.592H238.428V123ZM238.428 107.76H239.604V105.84H238.428V107.76ZM241.219 111.576H243.139V120.984C243.139 122.448 243.979 123.096 245.251 123.096C245.755 123.096 246.115 123.024 246.499 122.88V121.872H246.427C246.211 121.992 245.803 122.088 245.491 122.088C244.675 122.088 244.315 121.8 244.315 120.888V111.576H246.571V110.592H244.315V106.848H243.139V110.592H241.219V111.576ZM258.09 116.928C258.114 114.576 257.658 112.8 256.29 111.528C255.474 110.76 254.37 110.328 253.026 110.328C249.642 110.328 247.506 112.992 247.506 116.808C247.506 120.624 249.474 123.312 253.122 123.312C255.882 123.312 257.514 121.608 258.018 119.304H256.89C256.386 120.984 255.354 122.28 253.122 122.28C250.074 122.28 248.73 119.904 248.706 116.928H258.09ZM256.89 115.968H248.73C248.97 113.352 250.338 111.336 253.026 111.336C255.762 111.336 256.818 113.52 256.89 115.968ZM273.747 116.928C273.771 114.576 273.315 112.8 271.947 111.528C271.131 110.76 270.027 110.328 268.683 110.328C265.299 110.328 263.163 112.992 263.163 116.808C263.163 120.624 265.131 123.312 268.779 123.312C271.539 123.312 273.171 121.608 273.675 119.304H272.547C272.043 120.984 271.011 122.28 268.779 122.28C265.73 122.28 264.387 119.904 264.363 116.928H273.747ZM272.547 115.968H264.387C264.627 113.352 265.995 111.336 268.683 111.336C271.419 111.336 272.475 113.52 272.547 115.968ZM265.947 108.792H267.243L268.562 106.968H268.611L269.907 108.792H271.275L269.355 106.248H267.867L265.947 108.792ZM274.336 111.576H276.256V120.984C276.256 122.448 277.096 123.096 278.368 123.096C278.872 123.096 279.232 123.024 279.616 122.88V121.872H279.544C279.328 121.992 278.92 122.088 278.608 122.088C277.792 122.088 277.432 121.8 277.432 120.888V111.576H279.688V110.592H277.432V106.848H276.256V110.592H274.336V111.576ZM282.751 110.592H281.575V123H282.751V115.824C282.751 114 283.759 112.584 285.079 111.984C285.583 111.768 286.135 111.672 286.831 111.696V110.52C285.919 110.52 285.295 110.64 284.551 111.072C283.807 111.504 283.231 112.176 282.799 113.04H282.751V110.592ZM297.676 116.928C297.7 114.576 297.244 112.8 295.876 111.528C295.06 110.76 293.956 110.328 292.612 110.328C289.228 110.328 287.092 112.992 287.092 116.808C287.092 120.624 289.06 123.312 292.708 123.312C295.468 123.312 297.1 121.608 297.604 119.304H296.476C295.972 120.984 294.94 122.28 292.708 122.28C289.66 122.28 288.316 119.904 288.292 116.928H297.676ZM296.476 115.968H288.316C288.556 113.352 289.924 111.336 292.612 111.336C295.348 111.336 296.404 113.52 296.476 115.968ZM308.82 123.312C312.012 123.312 313.932 120.528 313.932 116.832C313.932 112.704 311.796 110.328 308.916 110.328C306.828 110.328 305.412 111.408 304.572 112.968H304.524V105.84H303.348V123H304.524V120.96H304.572C305.508 122.472 306.756 123.312 308.82 123.312ZM308.772 122.328C305.964 122.328 304.404 120.144 304.404 116.856C304.404 113.712 305.988 111.336 308.748 111.336C311.292 111.336 312.732 113.544 312.732 116.856C312.732 119.808 311.436 122.328 308.772 122.328ZM325.707 116.928C325.731 114.576 325.275 112.8 323.907 111.528C323.091 110.76 321.987 110.328 320.643 110.328C317.259 110.328 315.123 112.992 315.123 116.808C315.123 120.624 317.091 123.312 320.739 123.312C323.499 123.312 325.131 121.608 325.635 119.304H324.507C324.003 120.984 322.971 122.28 320.739 122.28C317.691 122.28 316.347 119.904 316.323 116.928H325.707ZM324.507 115.968H316.347C316.587 113.352 317.955 111.336 320.643 111.336C323.379 111.336 324.435 113.52 324.507 115.968ZM319.611 108.888H320.667L323.091 105.84H321.435L319.611 108.888ZM328.689 110.592H327.513V123H328.689V114.984C328.689 112.92 330.633 111.36 332.841 111.36C334.569 111.36 335.673 112.224 335.673 114.264V123H336.849V114.144C336.849 111.672 335.169 110.352 333.057 110.352C330.945 110.352 329.553 111.36 328.737 112.68H328.689V110.592ZM349.145 116.928C349.169 114.576 348.713 112.8 347.345 111.528C346.529 110.76 345.425 110.328 344.081 110.328C340.697 110.328 338.561 112.992 338.561 116.808C338.561 120.624 340.529 123.312 344.177 123.312C346.937 123.312 348.569 121.608 349.073 119.304H347.945C347.441 120.984 346.409 122.28 344.177 122.28C341.129 122.28 339.785 119.904 339.761 116.928H349.145ZM347.945 115.968H339.785C340.025 113.352 341.393 111.336 344.081 111.336C346.817 111.336 347.873 113.52 347.945 115.968ZM343.049 108.888H344.105L346.529 105.84H344.873L343.049 108.888ZM354.03 123H355.494L360.03 110.592H358.83L355.95 118.464C355.494 119.736 354.774 121.944 354.774 121.944H354.726C354.726 121.944 354.03 119.736 353.598 118.464L350.862 110.592H349.614L354.03 123ZM366.066 123.312C369.57 123.312 371.634 120.552 371.634 116.808C371.634 113.064 369.57 110.328 366.066 110.328C362.586 110.328 360.498 113.064 360.498 116.808C360.498 120.552 362.586 123.312 366.066 123.312ZM366.066 122.304C363.21 122.304 361.698 119.832 361.698 116.808C361.698 113.784 363.21 111.312 366.066 111.312C368.922 111.312 370.434 113.784 370.434 116.808C370.434 119.832 368.922 122.304 366.066 122.304ZM373.499 123H374.675V105.84H373.499V123ZM387.137 116.928C387.161 114.576 386.705 112.8 385.337 111.528C384.521 110.76 383.417 110.328 382.073 110.328C378.689 110.328 376.553 112.992 376.553 116.808C376.553 120.624 378.521 123.312 382.169 123.312C384.929 123.312 386.561 121.608 387.065 119.304H385.937C385.433 120.984 384.401 122.28 382.169 122.28C379.121 122.28 377.777 119.904 377.753 116.928H387.137ZM385.937 115.968H377.777C378.017 113.352 379.385 111.336 382.073 111.336C384.809 111.336 385.865 113.52 385.937 115.968Z" fill="white"/>
<g clip-path="url(#clip0_280_372)">
<path d="M743.92 33.6129C743.357 30.8863 740.755 29.3723 738.117 30.2465C735.076 31.2547 732.042 32.2804 729.005 33.2974C721.722 35.7332 714.44 38.1684 707.158 40.603C705.334 41.2128 704.258 42.4801 704.026 44.3888C703.802 46.2148 704.756 47.8539 706.469 48.781C710.264 50.8325 714.06 52.8829 717.858 54.9321C718.352 55.1844 718.757 55.5816 719.019 56.0707C721.108 59.92 723.205 63.764 725.308 67.6028C726.254 69.3335 727.726 70.1866 729.678 69.9645C731.528 69.7548 732.745 68.6638 733.342 66.8837C736.761 56.68 740.182 46.478 743.605 36.2778C743.811 35.6662 744.01 35.0564 743.992 34.3972C743.982 34.1347 743.958 33.8729 743.92 33.6129ZM719.033 52.3765C715.297 50.3449 711.555 48.3216 707.807 46.3064C707.121 45.9381 706.727 45.4129 706.826 44.6127C706.917 43.8724 707.402 43.4759 708.078 43.2503C718.136 39.8909 728.194 36.5298 738.25 33.167C738.407 33.0853 738.582 33.043 738.758 33.0436C738.713 33.2075 738.583 33.2833 738.481 33.3838C732.227 39.6783 725.974 45.9733 719.722 52.269C719.487 52.5069 719.33 52.5386 719.033 52.3765ZM739.75 38.6907C736.708 47.7734 733.666 56.8562 730.626 65.939C730.398 66.6228 729.991 67.0899 729.254 67.1727C728.477 67.2591 727.964 66.8801 727.603 66.2016C725.598 62.424 723.585 58.6516 721.564 54.8845C721.453 54.6766 721.405 54.532 721.615 54.3329C727.986 47.9879 734.352 41.6352 740.714 35.275C740.755 35.2344 740.8 35.2009 740.843 35.1639L740.913 35.2132C740.524 36.373 740.137 37.5321 739.754 38.6907H739.75Z" fill="white"/>
</g>
<defs>
<clipPath id="clip0_280_372">
<rect width="40" height="40" fill="white" transform="translate(704 30)"/>
</clipPath>
</defs>
</svg>
