<svg width="66" height="65" viewBox="0 0 66 65" fill="none" xmlns="http://www.w3.org/2000/svg">
<path d="M33.0018 0C28.6687 -4.74751e-07 24.3781 0.840787 20.3751 2.47433C16.372 4.10787 12.735 6.50216 9.67172 9.52041C6.60849 12.5387 4.17907 16.1217 2.52229 20.0649C0.8655 24.0081 0.0137908 28.2341 0.0158347 32.5015C0.0158347 41.1174 3.49116 49.3804 9.67723 55.4727C15.8633 61.5651 24.2534 64.9877 33.0018 64.9877C41.7503 64.9877 50.1404 61.5651 56.3265 55.4727C62.5125 49.3804 65.9878 41.1174 65.9878 32.5015C65.9899 28.2341 65.1382 24.0081 63.4814 20.0649C61.8246 16.1217 59.3952 12.5387 56.332 9.52041C53.2687 6.50216 49.6317 4.10787 45.6286 2.47433C41.6256 0.840787 37.3349 -4.74751e-07 33.0018 0ZM24.5219 51.0125C24.5219 51.1198 24.5219 51.2271 24.5219 51.3343C24.5033 52.2538 23.8996 52.7196 23.0096 52.4836C22.0169 52.2231 21.0397 51.9044 20.0533 51.6163L15.7744 50.3628C14.1998 49.9031 12.6221 49.4434 11.0506 48.9776C10.4842 48.809 10.2321 48.4136 10.2321 47.7517C10.2321 42.4681 10.2321 37.1855 10.2321 31.9039C10.2321 26.655 10.2321 21.4051 10.2321 16.1542C10.2321 15.1091 10.7985 14.6464 11.8285 14.9283C13.4063 15.3574 14.9684 15.8477 16.5368 16.2952L23.4919 18.3486C24.273 18.5784 24.5251 18.888 24.5251 19.6664C24.5251 25.375 24.5251 31.0856 24.5251 36.7983C24.5251 38.4931 24.4846 40.1879 24.4877 41.8827C24.4877 44.9229 24.5095 47.9693 24.5219 51.0125ZM40.1498 31.8916V47.7394C40.1498 48.4044 39.8946 48.7998 39.3283 48.9653C37.7723 49.4342 36.1791 49.8847 34.6045 50.3506L30.3256 51.604C29.3392 51.8921 28.362 52.217 27.3693 52.4713C26.4669 52.7073 25.8756 52.2354 25.857 51.3221C25.857 51.2148 25.857 51.1075 25.857 51.0003C25.857 47.957 25.8912 44.9106 25.8943 41.8674C25.8943 40.1726 25.857 38.4778 25.857 36.783C25.857 31.0744 25.857 25.3638 25.857 19.6511C25.857 18.8726 26.109 18.5631 26.8901 18.3333L33.8451 16.2799C35.4011 15.8202 36.9757 15.3421 38.5534 14.913C39.5835 14.6311 40.1498 15.0938 40.1498 16.1389V31.8916ZM55.7684 36.7952C55.7684 38.49 55.728 40.1848 55.7311 41.8796C55.7311 44.9229 55.756 47.9693 55.7684 51.0125C55.7684 51.1198 55.7684 51.2271 55.7684 51.3343C55.7497 52.2538 55.146 52.7196 54.256 52.4836C53.2633 52.2231 52.2862 51.9044 51.2997 51.6163L47.0209 50.3628C45.4463 49.9031 43.8685 49.4434 42.297 48.9776C41.7307 48.809 41.4755 48.4136 41.4755 47.7517V16.1542C41.4755 15.1091 42.0419 14.6464 43.0719 14.9283C44.6496 15.3574 46.2118 15.8477 47.7802 16.2952L54.7352 18.3486C55.5132 18.5784 55.7684 18.888 55.7684 19.6664C55.7705 25.3648 55.7705 31.0744 55.7684 36.7952Z" fill="white"/>
</svg>
