<svg width="132" height="131" viewBox="0 0 132 131" fill="none" xmlns="http://www.w3.org/2000/svg">
<g clip-path="url(#clip0_192_470)">
<path d="M97.8748 73.9757L131.996 71.0313L98.9977 61.8876L129.75 46.8581L95.6526 50.2127L118.874 25.1254L88.3039 40.527L100.87 8.7687L77.9422 34.1343L78.1509 0L65.9845 31.9048L53.8063 0L54.015 34.1343L31.0871 8.7687L43.6533 40.527L13.0828 25.1254L36.3046 50.2127L2.20674 46.8581L32.9595 61.8876L-0.0390625 71.0313L34.0824 73.9757L6.66295 94.3725L39.5498 84.8304L21.3427 113.744L48.5504 93.0072L42.0543 126.526L59.9086 97.3931L65.9845 130.994L72.0751 97.3989L89.9294 126.532L83.4332 93.0131L110.641 113.75L92.4397 84.8421L125.332 94.3725L97.8748 73.9757ZM65.6905 95.688C59.5286 95.6851 53.5059 93.8612 48.3839 90.4471C43.2618 87.033 39.2705 82.1818 36.9144 76.5069C34.5584 70.8321 33.9434 64.5884 35.1473 58.5653C36.3512 52.5421 39.3199 47.01 43.6781 42.6683C48.0362 38.3267 53.5882 35.3704 59.632 34.1733C65.6757 32.9762 71.9398 33.5921 77.6324 35.943C83.325 38.2939 88.1904 42.2743 91.6135 47.381C95.0366 52.4877 96.8637 58.4913 96.8637 64.6328C96.8637 68.7123 96.0573 72.7518 94.4905 76.5205C92.9237 80.2892 90.6272 83.7134 87.7324 86.5973C84.8375 89.4812 81.4009 91.7684 77.6189 93.3282C73.8369 94.888 69.7836 95.6899 65.6905 95.688Z" fill="white"/>
</g>
<path d="M66.0016 33C61.6685 33 57.3779 33.8408 53.3749 35.4743C49.3718 37.1079 45.7348 39.5022 42.6715 42.5204C39.6083 45.5387 37.1789 49.1217 35.5221 53.0649C33.8653 57.0081 33.0136 61.2341 33.0156 65.5015C33.0156 74.1174 36.491 82.3804 42.677 88.4727C48.8631 94.5651 57.2532 97.9877 66.0016 97.9877C74.7501 97.9877 83.1402 94.5651 89.3263 88.4727C95.5123 82.3804 98.9876 74.1174 98.9876 65.5015C98.9897 61.2341 98.138 57.0081 96.4812 53.0649C94.8244 49.1217 92.395 45.5387 89.3318 42.5204C86.2685 39.5022 82.6315 37.1079 78.6284 35.4743C74.6254 33.8408 70.3347 33 66.0016 33ZM57.5217 84.0125C57.5217 84.1198 57.5217 84.2271 57.5217 84.3343C57.5031 85.2538 56.8994 85.7196 56.0094 85.4836C55.0167 85.2231 54.0395 84.9044 53.0531 84.6163L48.7742 83.3628C47.1996 82.9031 45.6219 82.4434 44.0504 81.9776C43.484 81.809 43.2319 81.4136 43.2319 80.7517C43.2319 75.4681 43.2319 70.1855 43.2319 64.9039C43.2319 59.655 43.2319 54.4051 43.2319 49.1542C43.2319 48.1091 43.7983 47.6464 44.8283 47.9283C46.4061 48.3574 47.9682 48.8477 49.5366 49.2952L56.4917 51.3486C57.2728 51.5784 57.5249 51.888 57.5249 52.6664C57.5249 58.375 57.5249 64.0856 57.5249 69.7983C57.5249 71.4931 57.4844 73.1879 57.4875 74.8827C57.4875 77.9229 57.5093 80.9693 57.5217 84.0125ZM73.1496 64.8916V80.7394C73.1496 81.4044 72.8944 81.7998 72.3281 81.9653C70.7721 82.4342 69.1789 82.8847 67.6043 83.3506L63.3254 84.604C62.3389 84.8921 61.3618 85.217 60.3691 85.4713C59.4667 85.7073 58.8754 85.2354 58.8567 84.3221C58.8567 84.2148 58.8567 84.1075 58.8567 84.0003C58.8567 80.957 58.891 77.9106 58.8941 74.8674C58.8941 73.1726 58.8567 71.4778 58.8567 69.783C58.8567 64.0744 58.8567 58.3638 58.8567 52.6511C58.8567 51.8726 59.1088 51.5631 59.8899 51.3333L66.8449 49.2799C68.4009 48.8202 69.9755 48.3421 71.5532 47.913C72.5833 47.6311 73.1496 48.0938 73.1496 49.1389V64.8916ZM88.7682 69.7952C88.7682 71.49 88.7277 73.1848 88.7309 74.8796C88.7309 77.9229 88.7558 80.9693 88.7682 84.0125C88.7682 84.1198 88.7682 84.2271 88.7682 84.3343C88.7495 85.2538 88.1458 85.7196 87.2558 85.4836C86.2631 85.2231 85.286 84.9044 84.2995 84.6163L80.0207 83.3628C78.4461 82.9031 76.8683 82.4434 75.2968 81.9776C74.7305 81.809 74.4753 81.4136 74.4753 80.7517V49.1542C74.4753 48.1091 75.0417 47.6464 76.0717 47.9283C77.6494 48.3574 79.2116 48.8477 80.78 49.2952L87.735 51.3486C88.513 51.5784 88.7682 51.888 88.7682 52.6664C88.7703 58.3648 88.7703 64.0744 88.7682 69.7952Z" fill="white"/>
<defs>
<clipPath id="clip0_192_470">
<rect width="132" height="131" fill="white"/>
</clipPath>
</defs>
</svg>
