<svg width="66" height="66" viewBox="0 0 66 66" fill="none" xmlns="http://www.w3.org/2000/svg">
<path d="M32.9985 7.62939e-06C24.25 7.62939e-06 15.8599 3.4753 9.67379 9.66138C3.48772 15.8475 0.012432 24.2376 0.012432 32.986C0.010388 37.3191 0.862097 41.6101 2.51888 45.614C4.17567 49.6178 6.60508 53.256 9.66832 56.3207C12.7316 59.3854 16.3686 61.8165 20.3716 63.4752C24.3747 65.1338 28.6654 65.9876 32.9985 65.9876C41.7469 65.9876 50.137 62.5123 56.323 56.3262C62.5091 50.1401 65.9845 41.75 65.9845 33.0016C65.9865 28.6685 65.1348 24.3774 63.478 20.3736C61.8212 16.3697 59.3918 12.7316 56.3286 9.66688C53.2653 6.6022 49.6283 4.17108 45.6252 2.5124C41.6222 0.85373 37.3316 7.14734e-06 32.9985 7.62939e-06V7.62939e-06ZM40.3549 9.55972C41.7584 7.95088 42.4586 10.2941 43.778 10.6209C44.9076 10.4528 45.7167 7.82018 47.2477 9.63752C47.7083 10.1821 46.781 11.8376 46.5227 12.849C46.7654 13.9724 47.0237 15.1673 47.2851 16.3623L43.638 15.6777L40.2584 16.4121C40.4638 15.2202 40.6692 14.0315 40.8808 12.7338C40.7159 11.8438 39.8508 10.1354 40.3549 9.55972V9.55972ZM7.60233 28.6574C7.84194 27.5246 8.07844 26.3888 8.29627 25.3557C8.05666 24.0922 7.84193 22.9471 7.62409 21.8019L11.0939 22.4554C11.0596 22.639 11.0285 22.8257 10.9943 23.0093C12.3106 22.8444 13.0917 20.193 14.6321 21.973C15.0958 22.5114 14.1964 24.1669 13.9599 25.1472C14.1995 26.3079 14.4423 27.4935 14.685 28.6792L11.0161 28.0225L7.60233 28.6574ZM17.1776 53.0421C15.6621 54.6323 14.9339 52.2828 13.8354 52.4042L10.1727 53.1759C10.4217 51.9747 10.6707 50.7735 10.9134 49.6097C10.6893 48.589 10.431 47.4034 10.1727 46.2146L13.6767 46.9833C14.8561 47.2042 15.6995 44.7552 17.2429 46.448C17.6911 46.9428 16.7513 48.6263 16.4899 49.6066C16.7793 50.8856 17.6382 52.5598 17.1776 53.0421V53.0421ZM18.9825 39.6983C15.7524 40.218 13.4838 37.7098 14.5823 34.7193C15.7554 31.5141 18.3165 30.176 21.9108 30.1199V20.5353C21.9108 17.5479 21.8423 14.5574 21.9668 11.5731C21.9948 10.9134 22.7012 10.2817 23.0933 9.63752C23.6877 10.095 24.366 10.4808 24.8577 11.0316C25.7913 12.0928 26.4603 13.4745 27.5651 14.3085C29.6158 15.8644 30.9881 17.688 31.0597 20.2024C31.0753 20.8559 30.2133 21.528 29.7558 22.194C29.2642 21.6369 28.4488 21.1359 28.343 20.5167C28.0038 18.578 27.0983 17.1683 25.0445 16.2472C24.9507 16.7689 24.8883 17.2957 24.8577 17.8249C24.8422 22.8973 24.8577 27.9696 24.8359 33.042C24.8235 36.4309 22.418 39.1444 18.9825 39.6983ZM50.2414 44.8112C50.2414 48.0787 47.3225 50.9323 44.0176 51.0349C40.5728 51.1501 38.7617 48.4925 40.2834 45.4335C41.665 42.6733 44.1203 41.4752 47.2976 41.3881V30.1044C42.9565 31.4487 38.7586 32.6935 34.626 34.1125C34.1312 34.2837 33.7328 35.4133 33.7173 36.1041C33.6332 40.6163 33.6986 45.1286 33.6519 49.6439C33.6146 53.0919 31.2278 55.8926 27.7643 56.154C26.5195 56.2474 24.696 55.7246 24.0518 54.847C23.3454 53.8823 23.2613 52.0463 23.669 50.8327C24.531 48.2747 26.3079 47.3847 30.8481 46.504V37.8654C30.8481 34.5326 30.8885 31.1998 30.8263 27.8669C30.8045 26.5911 31.1562 25.8318 32.5223 25.4179C37.6165 23.862 42.6702 22.1971 47.7706 20.6287C49.6377 20.053 50.2352 20.526 50.2383 22.4958C50.2632 29.9395 50.2756 37.3831 50.2414 44.8112V44.8112ZM61.939 39.2533C61.3789 39.7046 59.6922 38.8332 58.6622 38.5998C57.3583 38.8488 55.6561 39.6485 55.1364 39.188C53.4529 37.6849 56.0357 37.0532 56.2909 35.8614C55.9393 34.6789 53.4902 33.9662 55.1333 32.5099C55.6841 32.0244 57.4703 32.8615 58.6404 33.347C59.8136 33.3688 60.4671 30.8575 62.0075 32.5068C62.4805 33.0171 61.662 34.6695 61.1703 35.7587C61.105 36.9786 63.7688 37.7814 61.939 39.2533Z" fill="white"/>
</svg>
