<svg width="132" height="131" viewBox="0 0 132 131" fill="none" xmlns="http://www.w3.org/2000/svg">
<g clip-path="url(#clip0_192_466)">
<path d="M97.8748 73.9757L131.996 71.0313L98.9977 61.8876L129.75 46.8581L95.6526 50.2127L118.874 25.1254L88.3039 40.527L100.87 8.7687L77.9422 34.1343L78.1509 0L65.9845 31.9048L53.8063 0L54.015 34.1343L31.0871 8.7687L43.6533 40.527L13.0828 25.1254L36.3046 50.2127L2.20674 46.8581L32.9595 61.8876L-0.0390625 71.0313L34.0824 73.9757L6.66295 94.3725L39.5498 84.8304L21.3427 113.744L48.5504 93.0072L42.0543 126.526L59.9086 97.3931L65.9845 130.994L72.0751 97.3989L89.9294 126.532L83.4332 93.0131L110.641 113.75L92.4397 84.8421L125.332 94.3725L97.8748 73.9757ZM65.6905 95.688C59.5286 95.6851 53.5059 93.8612 48.3839 90.4471C43.2618 87.033 39.2705 82.1818 36.9144 76.5069C34.5584 70.8321 33.9434 64.5884 35.1473 58.5653C36.3512 52.5421 39.3199 47.01 43.6781 42.6683C48.0362 38.3267 53.5882 35.3704 59.632 34.1733C65.6757 32.9762 71.9398 33.5921 77.6324 35.943C83.325 38.2939 88.1904 42.2743 91.6135 47.381C95.0366 52.4877 96.8637 58.4913 96.8637 64.6328C96.8637 68.7123 96.0573 72.7518 94.4905 76.5205C92.9237 80.2892 90.6272 83.7134 87.7324 86.5973C84.8375 89.4812 81.4009 91.7684 77.6189 93.3282C73.8369 94.888 69.7836 95.6899 65.6905 95.688Z" fill="white"/>
</g>
<path d="M65.9985 31C57.2501 31 48.8599 34.4753 42.6738 40.6614C36.4877 46.8474 33.0125 55.2376 33.0125 63.986C33.0104 68.3191 33.8621 72.6101 35.5189 76.614C37.1757 80.6178 39.6051 84.256 42.6683 87.3207C45.7316 90.3854 49.3686 92.8165 53.3716 94.4752C57.3747 96.1338 61.6654 96.9875 65.9985 96.9875C74.7469 96.9875 83.137 93.5122 89.3231 87.3262C95.5091 81.1401 98.9845 72.75 98.9845 64.0016C98.9865 59.6685 98.1348 55.3774 96.478 51.3736C94.8213 47.3697 92.3918 43.7316 89.3286 40.6669C86.2654 37.6022 82.6283 35.1711 78.6253 33.5124C74.6222 31.8537 70.3316 31 65.9985 31V31ZM73.355 40.5597C74.7584 38.9509 75.4586 41.2941 76.778 41.6209C77.9076 41.4528 78.7167 38.8202 80.2478 40.6375C80.7083 41.1821 79.781 42.8376 79.5227 43.849C79.7655 44.9724 80.0237 46.1673 80.2851 47.3623L76.638 46.6777L73.2585 47.4121C73.4639 46.2202 73.6692 45.0315 73.8809 43.7338C73.7159 42.8438 72.8508 41.1354 73.355 40.5597V40.5597ZM40.6024 59.6574C40.842 58.5246 41.0785 57.3888 41.2963 56.3556C41.0567 55.0922 40.8419 53.947 40.6241 52.8019L44.0939 53.4554C44.0596 53.639 44.0285 53.8257 43.9943 54.0093C45.3106 53.8444 46.0917 51.193 47.6321 52.973C48.0958 53.5114 47.1964 55.1669 46.9599 56.1472C47.1995 57.3079 47.4423 58.4935 47.685 59.6791L44.0161 59.0225L40.6024 59.6574ZM50.1776 84.0421C48.6621 85.6323 47.934 83.2828 46.8355 83.4042L43.1728 84.1759C43.4217 82.9747 43.6707 81.7735 43.9134 80.6097C43.6893 79.589 43.4311 78.4034 43.1728 77.2146L46.6768 77.9833C47.8562 78.2042 48.6995 75.7551 50.243 77.448C50.6911 77.9428 49.7513 79.6263 49.4899 80.6066C49.7793 81.8856 50.6382 83.5598 50.1776 84.0421V84.0421ZM51.9825 70.6983C48.7524 71.218 46.4838 68.7098 47.5823 65.7193C48.7555 62.5141 51.3166 61.176 54.9108 61.1199V51.5353C54.9108 48.5479 54.8423 45.5574 54.9668 42.5731C54.9948 41.9134 55.7012 41.2817 56.0933 40.6375C56.6877 41.095 57.3661 41.4808 57.8577 42.0316C58.7913 43.0928 59.4604 44.4745 60.5651 45.3084C62.6158 46.8644 63.9881 48.688 64.0597 51.2024C64.0753 51.8559 63.2133 52.528 62.7559 53.194C62.2642 52.6369 61.4489 52.1359 61.343 51.5167C61.0039 49.578 60.0983 48.1683 58.0445 47.2472C57.9507 47.7688 57.8883 48.2957 57.8577 48.8249C57.8422 53.8973 57.8577 58.9696 57.8359 64.042C57.8235 67.4309 55.4181 70.1444 51.9825 70.6983ZM83.2414 75.8112C83.2414 79.0786 80.3225 81.9322 77.0177 82.0349C73.5728 82.1501 71.7617 79.4925 73.2834 76.4335C74.6651 73.6733 77.1204 72.4752 80.2976 72.3881V61.1044C75.9565 62.4487 71.7586 63.6935 67.626 65.1125C67.1312 65.2837 66.7328 66.4133 66.7173 67.1041C66.6333 71.6163 66.6986 76.1286 66.6519 80.6439C66.6146 84.0919 64.2278 86.8926 60.7643 87.154C59.5195 87.2473 57.696 86.7245 57.0518 85.847C56.3454 84.8823 56.2613 83.0463 56.669 81.8327C57.531 79.2747 59.3079 78.3847 63.8481 77.504V68.8654C63.8481 65.5326 63.8886 62.1998 63.8263 58.8669C63.8045 57.5911 64.1562 56.8318 65.5224 56.4179C70.6165 54.8619 75.6702 53.1971 80.7706 51.6287C82.6377 51.053 83.2352 51.526 83.2383 53.4958C83.2632 60.9395 83.2757 68.3831 83.2414 75.8112V75.8112ZM94.939 70.2533C94.3789 70.7046 92.6922 69.8332 91.6622 69.5998C90.3583 69.8488 88.6561 70.6485 88.1364 70.188C86.4529 68.6849 89.0357 68.0532 89.2909 66.8614C88.9393 65.6789 86.4902 64.9662 88.1333 63.5099C88.6841 63.0244 90.4703 63.8615 91.6404 64.347C92.8136 64.3688 93.4671 61.8575 95.0075 63.5068C95.4805 64.0171 94.662 65.6695 94.1703 66.7587C94.105 67.9785 96.7688 68.7814 94.939 70.2533Z" fill="white"/>
<defs>
<clipPath id="clip0_192_466">
<rect width="132" height="131" fill="white"/>
</clipPath>
</defs>
</svg>
